<?xml version="1.0" standalone="no"?>
<!DOCTYPE svg PUBLIC "-//W3C//DTD SVG 20010904//EN"
 "http://www.w3.org/TR/2001/REC-SVG-20010904/DTD/svg10.dtd">
<svg version="1.0" xmlns="http://www.w3.org/2000/svg"
 width="290.000000pt" height="290.000000pt" viewBox="0 0 290.000000 290.000000"
 preserveAspectRatio="xMidYMid meet">
<metadata>
Created by potrace 1.14, written by Peter Selinger 2001-2017
</metadata>
<g transform="translate(0.000000,290.000000) scale(0.100000,-0.100000)"
fill="#000000" stroke="none">
<path d="M7 2735 c-7 -17 -2 -2573 4 -2579 3 -4 22 13 42 37 87 107 267 273
382 353 70 49 155 81 200 75 23 -3 143 -68 164 -88 7 -8 61 -37 120 -66 106
-52 106 -52 201 -51 80 1 104 5 152 27 53 24 166 93 178 108 3 3 36 30 75 60
71 54 99 76 119 94 33 31 158 125 201 153 28 17 56 36 63 42 6 6 12 8 12 4 0
-3 6 -2 13 4 12 10 45 15 78 13 23 -1 142 -100 284 -236 23 -22 88 -83 144
-135 57 -52 124 -115 150 -140 47 -44 180 -165 244 -222 18 -15 35 -28 40 -28
4 0 6 582 5 1293 l-3 1292 -1432 0 c-983 1 -1434 -2 -1436 -10z m174 -65 c10
-6 19 -18 20 -28 0 -11 2 -12 6 -4 3 7 0 19 -7 27 -10 12 16 14 179 15 105 0
192 -3 192 -7 5 -30 3 -233 -2 -233 -4 0 -9 -27 -13 -60 -4 -33 -12 -62 -17
-66 -6 -3 -8 -12 -5 -20 3 -8 2 -14 -3 -14 -5 0 -12 -12 -15 -27 -14 -59 -50
-123 -70 -123 -19 0 -49 -29 -89 -87 -12 -18 -26 -33 -31 -33 -5 0 -1 10 8 23
14 19 37 63 41 77 0 3 9 19 18 37 9 18 17 37 17 44 0 6 -24 -36 -54 -94 -29
-59 -55 -106 -57 -104 -2 1 -2 0 -1 -3 2 -3 7 -5 10 -6 25 -3 62 -18 62 -24 0
-11 -62 -113 -73 -121 -12 -9 -26 -79 -16 -79 5 0 9 7 9 16 0 15 66 133 80
144 4 3 11 12 16 21 7 12 16 14 42 7 39 -10 39 -15 7 -51 -14 -15 -22 -27 -17
-27 4 0 19 14 31 31 19 25 27 30 49 24 36 -9 36 -9 16 -39 -9 -15 -14 -29 -11
-32 3 -3 8 3 11 13 13 40 39 43 104 13 63 -31 76 -46 58 -68 -18 -23 -46 -47
-54 -47 -4 0 -14 -13 -23 -30 -13 -23 -23 -30 -44 -28 -30 2 -63 27 -76 58 -6
15 -8 16 -8 4 -1 -9 6 -22 14 -29 8 -7 12 -17 8 -23 -3 -6 -1 -7 5 -3 7 4 12
2 12 -3 0 -6 9 -11 19 -11 34 0 34 -19 0 -53 -18 -17 -32 -33 -31 -34 15 -21
-35 -63 -73 -63 -30 0 -90 35 -94 55 -10 51 -25 95 -33 95 -5 0 -7 4 -4 9 7
11 -3 41 -14 41 -5 0 -4 -15 1 -32 6 -18 12 -37 13 -43 2 -5 8 -23 14 -38 7
-16 12 -32 12 -37 0 -5 11 -21 25 -35 24 -23 49 -30 103 -25 12 1 22 -3 22 -9
0 -6 -5 -11 -11 -11 -5 0 -8 -4 -5 -9 10 -15 -5 -41 -23 -41 -14 -1 -14 -2 2
-11 27 -16 21 -39 -10 -40 -26 -1 -25 -2 7 -9 19 -5 37 -5 40 -2 7 9 40 12 40
3 0 -4 8 -7 18 -8 9 -1 32 -5 51 -9 25 -5 37 -3 46 9 6 8 33 28 61 42 35 20
41 25 20 21 -15 -4 -35 -14 -43 -21 -8 -8 -19 -15 -24 -15 -12 0 -12 27 1 35
6 4 7 11 4 17 -5 7 -1 9 9 5 10 -3 17 -3 17 2 0 5 11 12 25 15 14 4 25 11 25
16 0 5 -12 2 -27 -6 -16 -7 -31 -14 -35 -14 -11 0 4 42 18 47 7 2 16 18 19 33
5 21 15 32 38 39 18 6 35 11 40 11 4 0 20 6 37 15 37 19 76 19 84 0 4 -11 -1
-15 -18 -15 -38 0 -86 -12 -86 -21 0 -5 12 -4 26 1 70 27 111 4 132 -73 l10
-37 -46 25 c-26 14 -58 25 -72 24 -19 -1 -16 -3 12 -10 49 -11 115 -53 121
-76 3 -10 8 -30 11 -45 6 -25 9 -27 33 -17 23 9 31 6 66 -28 33 -31 37 -33 22
-10 -9 15 -21 27 -26 27 -5 0 -9 6 -9 14 0 16 80 29 95 15 5 -5 15 -9 23 -9 9
0 4 8 -12 21 -14 11 -26 30 -26 42 0 12 -7 44 -15 71 -20 65 -19 69 7 48 32
-25 148 -141 148 -148 0 -3 14 -26 31 -50 17 -25 32 -51 33 -57 2 -7 6 -19 9
-27 19 -46 30 -78 34 -105 10 -64 52 -95 109 -81 26 7 108 84 174 165 68 83
100 116 112 117 7 0 21 2 30 2 49 5 104 95 114 187 6 49 27 114 36 109 5 -3 8
-2 7 3 -1 4 2 19 8 32 l9 23 16 -23 c8 -13 15 -39 14 -57 -1 -17 2 -32 7 -32
4 0 7 -29 7 -64 0 -51 -6 -74 -30 -119 -28 -52 -43 -95 -19 -54 5 9 14 17 18
17 16 0 19 -39 5 -51 -8 -6 -11 -15 -8 -20 3 -5 0 -9 -5 -9 -6 0 -11 -5 -11
-12 0 -6 -7 -20 -17 -30 -9 -10 -12 -18 -7 -18 9 0 48 58 49 72 0 3 9 17 20
30 18 20 105 164 105 173 0 2 18 32 40 66 22 35 44 73 49 84 5 12 25 42 45 68
37 49 44 63 24 51 -7 -4 -8 -3 -4 5 4 6 12 9 17 6 5 -4 9 -1 9 5 0 6 4 9 9 6
5 -3 14 1 21 9 7 8 16 12 21 9 12 -7 3 -82 -11 -99 -8 -9 -8 -15 0 -20 6 -3 7
-12 3 -18 -4 -7 -9 -21 -10 -32 -2 -10 -25 -40 -51 -65 -58 -56 -141 -165
-154 -202 -6 -16 -13 -28 -17 -28 -11 0 -76 -142 -73 -159 2 -7 -1 -10 -7 -6
-6 3 -11 -2 -11 -12 -1 -18 -41 -110 -76 -173 -21 -38 -120 -140 -135 -140
-10 0 -106 -69 -143 -103 -11 -9 -62 -38 -113 -64 -51 -26 -93 -51 -93 -56 0
-4 -4 -6 -8 -3 -5 3 -19 -4 -30 -15 -12 -11 -22 -17 -22 -14 0 4 -11 -7 -25
-23 -14 -17 -25 -36 -25 -44 0 -20 -31 -54 -56 -62 -17 -5 -21 -2 -21 16 -1
13 -1 30 -2 39 -2 24 -54 77 -70 71 -8 -3 -11 0 -7 6 3 5 -5 13 -19 16 -28 7
-95 72 -95 93 0 7 -6 16 -13 19 -7 2 -13 13 -14 23 -1 10 -10 38 -21 62 -11
24 -32 70 -46 103 -60 136 -147 245 -225 283 -20 9 -38 18 -41 18 -3 1 -24 7
-47 14 -43 12 -163 13 -163 2 0 -4 -29 -6 -64 -5 -48 2 -66 -2 -70 -12 -3 -8
-1 -14 4 -14 6 0 10 3 10 8 0 4 26 6 57 6 32 -1 62 1 68 4 13 8 107 11 120 4
5 -3 18 -7 30 -8 11 -1 34 -8 50 -15 17 -7 34 -11 38 -10 12 2 157 -146 157
-162 0 -7 9 -23 20 -35 12 -12 19 -22 16 -22 -2 0 9 -27 25 -60 15 -32 31 -70
35 -85 3 -14 10 -25 15 -25 5 0 9 -8 9 -19 0 -24 41 -101 71 -132 13 -14 49
-40 79 -58 49 -30 75 -55 73 -71 0 -3 3 -15 8 -27 13 -34 -17 -62 -84 -78 -51
-12 -104 -12 -116 0 -2 3 2 11 8 19 15 18 10 79 -7 82 -7 1 -8 0 -2 -3 15 -7
12 -65 -5 -86 -15 -20 -30 -19 -98 10 -35 15 -37 18 -32 52 l5 36 -10 -33 c-7
-21 -15 -30 -23 -26 -70 42 -87 57 -88 77 -1 17 -2 18 -6 4 -6 -22 -4 -22 -58
14 -28 19 -42 35 -38 42 10 16 12 57 2 52 -4 -3 -6 -13 -5 -22 5 -31 -15 -42
-50 -27 -17 7 -34 10 -38 7 -3 -4 -6 3 -6 15 0 11 5 24 11 27 6 4 8 13 5 21
-3 8 -1 14 4 14 18 0 11 117 -10 172 -19 52 -87 138 -109 138 -6 0 -11 5 -11
11 0 6 -7 9 -15 5 -8 -3 -15 -1 -15 4 0 16 -68 30 -150 29 -30 0 -93 -1 -140
-2 -95 -2 -140 7 -140 27 0 11 8 12 35 6 20 -5 33 -4 29 1 -3 5 -16 9 -29 9
-22 0 -35 17 -35 46 0 12 5 12 31 -1 17 -9 33 -15 35 -13 2 2 -12 12 -31 23
-35 18 -48 56 -25 70 6 3 10 1 10 -6 0 -7 3 -9 7 -6 3 4 -1 15 -9 24 -12 14
-16 43 -16 121 -1 62 3 100 9 97 5 -4 9 -15 9 -25 0 -10 6 -25 13 -32 6 -7 13
-20 15 -27 11 -52 93 -126 152 -138 85 -18 123 -20 127 -6 3 7 -6 11 -24 10
-47 -2 -115 13 -153 34 -40 22 -108 122 -102 149 2 8 0 11 -4 7 -9 -9 -32 58
-40 119 -7 51 11 68 22 22 4 -18 7 -37 6 -41 -2 -5 2 -6 7 -3 12 8 -5 63 -28
90 -13 16 -13 18 -1 11 12 -7 13 -6 4 6 -6 8 -11 28 -11 45 0 16 -3 35 -7 42
-5 8 -2 10 8 6 8 -3 18 -20 22 -37 4 -18 9 -27 11 -20 2 6 -5 32 -17 58 -11
25 -18 50 -15 55 3 6 3 10 -2 10 -4 0 -7 36 -5 80 3 71 7 83 30 108 63 66 73
79 58 79 -8 0 -13 -3 -11 -7 2 -4 -14 -24 -35 -45 -34 -33 -40 -36 -41 -20 -1
11 0 25 1 30 1 6 3 16 3 23 0 6 4 12 8 12 5 0 14 10 20 23 11 20 11 21 -5 8
-9 -8 -19 -11 -22 -9 -8 8 7 58 17 58 5 0 9 7 9 15 0 8 4 15 8 15 5 0 9 6 9
13 1 6 16 53 33 102 40 112 43 170 9 196 -21 16 -79 27 -79 14 0 -2 18 -9 40
-15 29 -8 41 -17 46 -35 8 -30 -3 -90 -22 -127 -8 -15 -14 -36 -14 -48 0 -13
-4 -19 -12 -14 -7 4 -8 3 -4 -4 4 -7 4 -18 -1 -24 -4 -7 -8 -15 -8 -18 -3 -20
-18 -50 -25 -50 -9 0 -7 23 5 61 4 11 2 19 -4 19 -6 0 -11 5 -11 11 0 5 4 8 8
5 4 -2 9 9 10 25 1 16 -3 29 -9 29 -6 0 -9 6 -6 14 3 8 3 17 -1 20 -9 10 -1
120 10 127 7 4 6 9 -1 13 -6 4 -11 37 -11 77 l0 69 51 0 c28 0 59 -5 70 -10z
m481 -25 l7 -30 -3 33 c-3 32 -2 32 41 32 42 0 50 -8 44 -43 -1 -5 3 -6 8 -3
5 3 7 15 4 26 -5 18 0 19 63 18 38 0 75 -6 83 -12 12 -8 13 -8 7 2 -6 10 3 12
40 10 43 -3 48 -6 56 -33 11 -37 11 -110 0 -150 -11 -40 4 -109 34 -152 13
-20 24 -42 24 -49 0 -8 4 -14 10 -14 22 0 45 -147 28 -183 -13 -25 -48 -4 -48
29 0 14 -4 23 -10 19 -6 -4 -7 -11 -4 -17 4 -7 2 -8 -5 -4 -14 9 -100 -44
-101 -61 0 -7 -4 -13 -8 -13 -5 0 -20 -9 -33 -21 l-24 -21 -6 32 c-10 48 -17
46 -12 -3 5 -40 3 -47 -21 -62 -25 -17 -27 -16 -111 31 -47 26 -85 53 -85 60
0 7 12 22 26 33 15 12 21 21 13 21 -8 0 -23 -13 -34 -29 l-20 -28 -69 26 c-45
17 -70 32 -72 44 -1 9 2 17 8 17 6 0 7 7 4 16 -3 8 -2 13 2 10 9 -5 66 151 65
176 -1 10 2 18 6 18 5 0 7 14 6 30 -1 17 1 30 6 30 5 0 9 57 9 126 l0 125 32
-3 c27 -2 34 -8 40 -33z m456 22 c6 -6 13 -24 17 -40 4 -15 11 -27 16 -27 4 0
1 16 -7 35 -7 19 -14 37 -14 40 0 13 75 3 92 -12 18 -16 18 -16 12 0 -5 14 1
17 39 17 33 0 49 -5 57 -17 11 -17 11 -17 6 0 -5 15 2 17 45 17 38 0 50 -3 46
-13 -7 -18 29 -19 44 -1 15 18 79 19 79 1 0 -7 -5 -18 -12 -25 -6 -6 -9 -14
-6 -17 3 -4 12 8 19 24 14 31 15 31 91 31 l78 0 -18 -21 c-9 -11 -26 -25 -37
-29 -16 -7 -17 -9 -3 -9 9 -1 30 13 45 30 28 29 32 30 99 27 l69 -3 -24 -20
c-13 -11 -33 -31 -45 -44 -12 -13 -29 -31 -38 -40 -10 -8 -18 -19 -18 -23 0
-4 31 24 70 62 l69 70 73 -1 73 0 -29 -22 c-87 -66 -216 -218 -216 -254 0 -8
-4 -11 -10 -8 -6 3 -7 -1 -4 -9 3 -9 2 -16 -4 -16 -6 0 -14 -15 -18 -32 -3
-18 -13 -42 -20 -53 -7 -11 -16 -33 -19 -50 -7 -35 -10 -44 -18 -65 -3 -8 -11
-33 -17 -55 -16 -62 -21 -67 -58 -54 -27 9 -31 15 -27 37 5 24 4 25 -4 6 -5
-12 -14 -24 -18 -27 -8 -5 -47 1 -93 15 -8 3 -10 2 -5 -1 9 -4 -122 -31 -155
-31 -67 0 -140 -1 -165 -3 l-30 -2 2 88 c2 60 -1 87 -9 87 -6 0 -8 3 -5 7 6 5
-57 130 -72 143 -21 18 -17 180 4 180 6 0 3 5 -5 10 -13 9 -13 10 0 10 9 0 11
3 5 8 -5 4 -11 16 -12 27 -1 11 -5 30 -9 43 -6 21 -3 22 39 22 24 0 49 -6 55
-13z m352 9 c0 -2 -7 -6 -15 -10 -8 -3 -15 -1 -15 4 0 6 7 10 15 10 8 0 15 -2
15 -4z m745 -22 c-51 -42 -53 -43 -59 -37 -3 4 -6 1 -6 -5 0 -7 -8 -12 -17
-13 -12 0 -14 -2 -5 -6 14 -5 100 50 115 74 5 9 38 12 114 12 l105 -1 -4 -81
c-3 -45 -1 -73 3 -62 4 11 8 48 8 83 l1 62 35 0 c26 0 35 -4 36 -17 1 -17 2
-17 6 0 3 11 14 17 33 17 23 0 30 -5 35 -30 4 -16 7 -33 7 -37 0 -5 4 -14 10
-21 6 -7 8 -15 5 -19 -4 -3 -2 -12 4 -20 9 -10 8 -13 -2 -13 -12 0 -12 -2 0
-9 9 -6 11 -18 6 -40 -3 -17 -7 -34 -8 -38 -4 -30 -130 -149 -181 -171 -25
-12 -49 -21 -51 -22 -20 -2 -138 -78 -167 -108 -32 -31 -77 -82 -73 -82 3 0
-3 -9 -12 -19 -32 -35 -43 -50 -43 -58 0 -4 -11 -18 -24 -31 l-24 -22 -14 30
c-7 16 -17 29 -23 27 -13 -5 -58 51 -50 63 3 5 1 10 -4 10 -6 0 -11 -5 -11
-10 0 -7 -7 -7 -20 0 -15 8 -21 8 -25 -2 -2 -7 -15 -46 -28 -86 -15 -44 -21
-74 -15 -78 5 -3 7 -18 3 -33 -6 -24 -5 -25 8 -7 12 17 16 18 34 5 11 -8 19
-22 17 -31 -1 -10 2 -18 7 -18 5 0 9 5 9 10 0 6 6 5 14 -2 8 -7 12 -16 10 -20
-2 -3 1 -8 7 -10 7 -2 2 -21 -14 -53 -14 -28 -26 -42 -27 -32 0 10 -7 28 -16
41 -10 16 -12 26 -5 31 6 3 11 11 11 18 0 6 -6 3 -13 -7 -15 -21 -64 -13 -64
10 0 8 4 14 9 14 4 0 8 5 8 10 0 22 -17 8 -34 -27 -10 -21 -31 -57 -47 -81
-34 -50 -38 -65 -9 -32 11 13 20 26 20 30 0 4 8 17 19 28 18 21 18 21 13 -31
-2 -28 -11 -62 -18 -74 -8 -13 -11 -23 -8 -23 4 0 -9 -16 -29 -35 -21 -20 -42
-33 -51 -29 -17 6 -29 46 -20 68 3 8 1 23 -4 32 -7 13 -4 26 12 48 11 17 24
33 27 36 15 14 45 91 38 96 -5 3 -9 2 -8 -3 5 -19 -67 -143 -83 -143 -5 0 -16
7 -24 15 -24 24 -30 18 -33 -32 -1 -26 -7 -53 -13 -60 -15 -18 -48 -16 -48 3
0 8 -5 12 -10 9 -20 -12 12 -36 43 -33 24 2 30 -1 32 -17 4 -53 17 -94 30 -99
20 -7 19 -19 -5 -46 -11 -13 -20 -27 -20 -33 0 -5 9 2 21 17 24 30 36 32 67
10 17 -11 20 -19 13 -28 -6 -7 -7 -17 -3 -22 4 -5 3 -6 -2 -2 -9 8 -34 -16
-84 -82 -58 -74 -136 -142 -167 -145 -5 -1 -22 5 -37 14 -21 12 -30 27 -40 70
-6 31 -11 59 -10 64 1 4 -3 7 -9 7 -5 0 -7 5 -4 10 3 6 1 10 -6 10 -7 0 -10 3
-6 6 6 6 -19 63 -32 74 -3 3 -13 18 -21 35 -15 29 -100 118 -211 220 -30 28
-62 60 -71 72 -16 20 -16 22 0 26 13 4 12 5 -4 6 -12 0 -27 8 -35 17 -10 13
-10 17 2 25 8 5 21 6 29 3 11 -4 12 -2 4 6 -9 9 -17 9 -32 1 -18 -9 -27 -6
-57 20 l-36 32 36 25 c20 14 53 27 73 29 60 6 61 6 56 14 -2 5 -16 4 -29 -1
-38 -14 -40 7 -3 26 18 10 53 17 78 17 43 -1 43 -1 10 6 l-35 6 32 19 c18 11
30 23 27 27 -2 5 3 12 13 17 20 10 103 16 103 8 0 -3 -16 -13 -35 -22 -33 -16
-35 -18 -20 -34 15 -17 15 -19 -2 -23 -12 -3 -10 -5 8 -6 15 0 37 -9 50 -19
26 -19 26 -19 81 -8 23 5 51 4 70 -3 l33 -11 -24 19 -24 18 45 -1 c25 -1 53
-7 62 -15 13 -11 22 -11 44 -2 21 9 36 9 57 1 27 -10 28 -11 9 -24 -11 -8 -47
-19 -79 -25 -51 -10 -62 -9 -71 4 -6 8 -15 15 -19 15 -4 0 -2 -7 5 -15 10 -12
10 -15 -1 -16 -8 0 -41 -3 -74 -5 -108 -8 -155 -9 -155 -3 0 3 -12 5 -27 3
-47 -7 -121 -6 -132 0 -5 4 -28 -1 -51 -10 l-41 -17 42 -18 c23 -11 57 -21 76
-23 80 -10 187 -82 232 -156 27 -45 28 -66 2 -42 -22 19 -30 26 -81 62 -36 26
-87 53 -105 56 -5 0 -17 3 -25 7 -31 11 -60 15 -54 6 3 -5 16 -9 29 -9 13 0
27 -5 30 -10 4 -6 12 -10 18 -9 19 4 68 -22 120 -62 26 -21 51 -39 55 -41 26
-12 53 -61 58 -104 7 -69 10 -74 39 -74 17 0 25 -6 26 -17 1 -16 2 -16 6 -2 3
14 14 16 61 12 55 -4 59 -3 95 30 20 20 37 38 37 42 0 3 -10 -3 -22 -15 -26
-24 -43 -21 -44 6 -2 42 -60 174 -76 174 -4 0 -8 6 -8 13 0 13 -36 49 -81 83
l-28 20 82 3 c45 2 106 4 134 4 29 1 53 5 53 9 0 4 15 15 33 24 17 9 43 28 56
42 20 22 22 32 17 71 -6 51 13 153 42 224 7 16 11 36 11 45 -1 13 -3 12 -6 -3
-3 -11 -10 -31 -16 -45 -14 -34 -15 -37 -27 -95 -17 -77 -16 -76 -50 -47 -20
17 -30 36 -30 54 0 16 4 28 8 28 4 0 8 8 9 18 1 11 11 47 22 82 11 34 18 67
14 73 -3 5 -1 7 4 4 6 -4 14 5 18 20 10 40 55 134 82 169 12 17 20 34 15 39
-4 5 -1 5 6 1 6 -4 12 -3 12 3 0 5 21 31 48 57 26 26 46 52 44 58 -2 6 -1 8 3
4 4 -4 30 9 57 28 48 32 54 34 137 34 l86 -1 -30 -25z m474 14 c11 -10 13 -10
7 0 -5 8 3 12 28 12 32 0 36 -3 37 -27 l2 -28 4 28 c3 21 10 27 28 27 l24 0 0
-377 c-1 -361 -6 -442 -30 -427 -5 3 -9 1 -9 -5 0 -6 -11 -13 -25 -17 -14 -3
-25 -10 -25 -14 0 -4 -18 -6 -40 -5 -22 1 -40 0 -40 -4 0 -3 -13 -7 -28 -8
-15 -1 -41 -7 -57 -14 -17 -7 -33 -12 -37 -11 -5 1 -8 -3 -8 -9 0 -5 -4 -7
-10 -4 -5 3 -10 24 -10 46 0 22 4 38 9 34 5 -3 12 -1 15 4 3 5 35 14 70 20
110 19 132 33 194 119 24 35 31 58 7 27 -8 -11 -29 -38 -46 -60 -35 -45 -65
-60 -155 -76 -35 -6 -67 -15 -70 -21 -11 -17 -34 14 -34 47 0 29 4 34 30 40
17 4 30 11 30 16 0 9 -47 -8 -64 -23 -9 -7 -46 42 -46 62 0 5 9 12 21 15 11 4
18 9 16 12 -3 2 -16 -1 -29 -8 -12 -7 -34 -14 -48 -14 -59 -3 -70 -6 -100 -32
-38 -34 -88 -101 -125 -168 -15 -27 -31 -53 -36 -58 -5 -4 -7 -4 -5 -1 3 3 0
17 -5 31 -6 17 -6 30 1 38 8 10 8 15 -1 21 -8 5 -10 3 -4 -7 5 -10 5 -11 -3
-4 -5 6 -17 26 -25 46 -15 36 -14 38 22 90 53 78 118 152 180 202 12 10 64 38
114 62 113 54 149 80 198 145 44 59 56 116 39 187 -6 26 -12 54 -12 61 -1 6
-4 12 -8 12 -4 0 -7 7 -7 15 0 19 47 20 66 3z m-2628 -341 c-10 -9 -11 -8 -5
6 3 10 9 15 12 12 3 -3 0 -11 -7 -18z m2302 -423 c8 -8 -25 -44 -35 -38 -4 3
-2 14 5 24 12 21 20 24 30 14z m443 -103 c-9 -10 -35 -23 -57 -30 -23 -7 -39
-15 -36 -17 2 -3 28 4 56 15 l52 20 -3 -37 c-2 -32 -7 -38 -33 -43 l-30 -6 33
-2 c25 -1 32 -5 32 -21 0 -12 -7 -20 -17 -20 -17 -1 -17 -1 0 -11 24 -14 21
-48 -5 -59 l-23 -9 23 0 c19 -1 23 -6 20 -28 -2 -17 -9 -28 -18 -29 -18 0
-119 -23 -140 -31 -8 -4 -17 -7 -20 -8 -64 -19 -90 -30 -90 -37 0 -4 -3 -7 -7
-6 -13 3 -83 -25 -83 -34 0 -4 -4 -7 -8 -6 -5 2 -29 -13 -54 -32 -49 -37 -89
-98 -83 -127 2 -10 5 -25 7 -33 5 -24 62 -78 75 -73 7 3 13 0 13 -6 0 -7 20
-11 50 -11 28 0 50 4 50 8 0 10 0 10 110 16 48 3 86 9 88 15 2 6 8 9 13 5 5
-3 9 -2 9 3 0 4 11 21 25 37 14 16 25 37 25 48 0 10 5 18 11 18 5 0 7 5 4 10
-3 6 -2 10 4 10 5 0 11 8 14 18 2 9 4 -66 4 -168 1 -125 -3 -190 -11 -199 -8
-11 -8 -13 1 -8 8 5 11 -26 11 -118 1 -99 -2 -125 -13 -125 -8 0 -16 -4 -20
-9 -3 -6 4 -8 15 -6 18 3 20 -1 20 -51 0 -51 -5 -60 -32 -55 -5 0 -8 -2 -8 -7
0 -7 -15 -9 -159 -15 l-85 -4 -65 63 c-36 34 -85 80 -109 101 l-43 39 25 14
c14 7 26 18 26 23 0 6 -8 3 -18 -6 -28 -26 -42 -21 -107 38 -84 77 -94 86
-147 129 -37 30 -45 41 -38 54 5 10 17 33 26 52 15 31 15 33 1 22 -9 -7 -19
-27 -22 -43 -7 -30 -31 -50 -52 -42 -10 4 -9 10 2 26 19 27 19 42 1 25 -8 -7
-12 -16 -10 -19 5 -8 -21 -30 -38 -33 -7 -1 -19 -5 -27 -10 -8 -5 -12 -5 -9 0
20 44 33 64 40 64 5 0 7 4 4 9 -3 5 1 14 9 21 8 7 15 19 15 26 0 8 4 14 10 14
5 0 9 3 8 8 -1 7 4 21 32 87 23 53 34 88 32 98 -1 5 2 6 7 3 5 -3 12 6 16 21
3 14 18 45 33 67 15 23 34 53 41 69 8 15 18 27 23 27 4 0 8 6 8 14 0 8 10 22
22 30 12 9 19 16 15 16 -4 0 8 16 28 37 19 20 35 40 35 45 0 5 5 6 10 3 15 -9
12 -17 -21 -55 -39 -45 -87 -113 -85 -122 0 -3 -10 -18 -23 -32 -14 -14 -21
-26 -17 -26 5 0 3 -6 -3 -14 -8 -10 -9 -16 -1 -21 6 -4 10 -3 9 2 -3 12 12 46
30 67 9 10 15 21 14 25 -1 3 6 15 16 26 9 12 21 29 24 40 5 13 11 15 18 8 11
-11 -20 -85 -41 -98 -5 -3 -10 -11 -10 -18 0 -6 7 -2 15 8 8 11 24 31 35 45
l20 25 -5 -37 c-6 -59 15 -66 58 -19 19 22 43 51 53 66 16 25 59 51 77 46 5
-1 6 3 2 9 -5 8 -11 8 -20 0 -23 -19 -37 -2 -21 23 8 12 19 41 26 65 6 23 15
42 20 42 5 0 7 7 4 15 -4 8 -4 25 0 38 7 30 89 65 175 74 39 4 81 16 105 29
l41 24 3 -26 c2 -14 -4 -34 -12 -43z m-1971 -88 c13 -16 25 -31 25 -35 0 -3
-18 -9 -40 -13 -22 -4 -38 -11 -35 -16 4 -5 -1 -6 -10 -2 -10 3 -21 0 -26 -8
-6 -10 -9 -10 -9 -2 0 11 60 101 68 102 2 1 14 -11 27 -26z m1979 -283 c-1
-62 -7 -86 -32 -137 -17 -35 -28 -63 -24 -63 3 0 -11 -16 -32 -35 -36 -32 -43
-35 -105 -35 -36 -1 -82 -6 -101 -13 -101 -35 -202 30 -186 119 5 22 22 46 53
73 42 38 138 91 162 91 6 0 11 5 11 10 0 6 3 9 8 8 15 -3 62 15 62 24 0 5 5 6
10 3 6 -4 18 -1 26 6 8 6 17 9 20 6 3 -3 22 0 42 7 20 7 48 13 62 12 24 -1 25
-3 24 -76z m-2704 -330 c0 -6 56 -5 223 4 42 3 77 1 77 -4 0 -4 8 -7 18 -6 19
3 79 -22 100 -41 7 -7 19 -16 26 -20 43 -27 92 -134 91 -198 -1 -51 -23 -125
-36 -125 -6 0 -7 -4 -4 -10 3 -5 -7 -12 -22 -16 -36 -9 -168 -70 -185 -87 -42
-39 -83 -51 -183 -52 -65 -2 -103 2 -107 9 -6 8 -8 7 -8 -2 0 -10 -4 -10 -20
0 -15 10 -20 24 -20 55 l0 42 38 -5 c39 -4 35 0 -9 10 -24 5 -26 10 -28 56 -1
52 3 55 39 24 8 -7 29 -15 45 -18 l30 -6 -31 12 c-17 7 -42 23 -57 34 -26 21
-27 26 -27 119 0 53 5 106 11 117 8 15 8 19 0 14 -7 -5 -11 4 -11 23 0 22 4
29 14 25 8 -3 17 0 21 6 3 6 3 10 -2 9 -22 -4 -33 3 -33 21 0 15 6 19 25 18
14 -1 25 -5 25 -8z m1379 -436 c-46 -37 -87 -71 -90 -76 -4 -5 -9 -3 -12 5 -6
17 48 66 119 108 79 46 73 34 -17 -37z m1327 -144 c4 -22 0 -38 -12 -52 -14
-15 -15 -19 -4 -16 12 2 15 -12 16 -80 l1 -82 -25 22 c-14 13 -33 30 -42 38
-8 8 -33 30 -54 48 -30 26 -35 36 -26 47 9 11 7 12 -9 8 -13 -3 -32 7 -58 30
-21 20 -36 37 -33 40 3 3 39 7 80 10 113 9 139 12 146 20 10 10 15 3 20 -33z
m-2611 10 l100 -1 -35 -29 c-20 -18 -47 -30 -65 -31 -27 -1 -28 -2 -6 -8 25
-7 20 -12 -109 -120 l-35 -29 3 48 c3 43 7 49 44 70 21 12 37 25 34 28 -4 3
-20 -4 -36 -16 -16 -12 -31 -22 -33 -22 -2 0 -5 23 -6 51 -1 29 -4 55 -6 59
-3 5 7 6 22 4 16 -2 73 -4 128 -4z"/>
<path d="M392 2650 c0 -14 2 -19 5 -12 2 6 2 18 0 25 -3 6 -5 1 -5 -13z"/>
<path d="M470 2651 c0 -11 4 -22 9 -25 4 -3 6 6 3 19 -5 30 -12 33 -12 6z"/>
<path d="M313 2600 c0 -36 2 -50 4 -32 2 17 2 47 0 65 -2 17 -4 3 -4 -33z"/>
<path d="M227 2595 c7 -49 13 -58 13 -19 0 16 -5 36 -10 44 -6 10 -7 2 -3 -25z"/>
<path d="M401 2567 c2 -25 5 -44 8 -41 6 6 1 77 -6 84 -2 2 -3 -17 -2 -43z"/>
<path d="M483 2590 c-1 -11 2 -20 7 -20 4 0 7 7 6 15 -3 23 -12 26 -13 5z"/>
<path d="M230 2530 c0 -5 5 -10 11 -10 5 0 7 5 4 10 -3 6 -8 10 -11 10 -2 0
-4 -4 -4 -10z"/>
<path d="M295 2520 c-3 -5 -1 -10 4 -10 6 0 11 5 11 10 0 6 -2 10 -4 10 -3 0
-8 -4 -11 -10z"/>
<path d="M218 2453 c-9 -32 -15 -59 -13 -61 5 -5 37 97 33 108 -2 5 -11 -16
-20 -47z"/>
<path d="M295 2491 c-3 -5 -2 -12 3 -15 5 -3 9 1 9 9 0 17 -3 19 -12 6z"/>
<path d="M400 2480 c0 -5 5 -10 11 -10 5 0 7 5 4 10 -3 6 -8 10 -11 10 -2 0
-4 -4 -4 -10z"/>
<path d="M275 2423 c-4 -26 -11 -57 -17 -68 -9 -19 -8 -19 5 -2 15 18 33 105
24 113 -3 3 -8 -17 -12 -43z"/>
<path d="M400 2445 c0 -8 4 -15 10 -15 5 0 7 7 4 15 -4 8 -8 15 -10 15 -2 0
-4 -7 -4 -15z"/>
<path d="M484 2406 c0 -13 4 -22 8 -20 9 6 6 44 -3 44 -4 0 -6 -11 -5 -24z"/>
<path d="M395 2400 c-10 -17 -15 -51 -6 -45 5 2 11 16 13 30 6 26 3 31 -7 15z"/>
<path d="M167 2305 c-14 -41 -23 -75 -19 -75 8 0 55 141 49 146 -2 2 -15 -30
-30 -71z"/>
<path d="M470 2353 c0 -11 -5 -24 -12 -31 -7 -7 -8 -12 -2 -12 15 0 36 48 24
55 -6 4 -10 -2 -10 -12z"/>
<path d="M236 2298 c-9 -43 -2 -45 11 -3 6 19 8 35 3 35 -4 0 -10 -14 -14 -32z"/>
<path d="M360 2299 c-6 -11 -10 -25 -8 -30 2 -5 8 4 15 21 13 34 9 40 -7 9z"/>
<path d="M440 2275 c0 -8 2 -15 4 -15 2 0 6 7 10 15 3 8 1 15 -4 15 -6 0 -10
-7 -10 -15z"/>
<path d="M201 2213 c-8 -20 -22 -46 -32 -57 -10 -11 -16 -22 -14 -25 3 -2 13
6 23 20 24 34 53 99 44 99 -5 0 -14 -17 -21 -37z"/>
<path d="M327 2230 c-3 -11 -3 -20 -1 -20 2 0 8 9 14 20 6 11 7 20 2 20 -6 0
-12 -9 -15 -20z"/>
<path d="M420 2231 c-6 -11 -6 -22 -1 -25 5 -3 11 5 13 19 6 30 2 32 -12 6z"/>
<path d="M124 2195 c-9 -13 -14 -28 -12 -33 1 -5 10 6 19 24 19 40 16 44 -7 9z"/>
<path d="M297 2174 c-10 -13 -13 -24 -8 -24 10 0 36 39 29 45 -2 2 -11 -8 -21
-21z"/>
<path d="M220 2057 c-19 -28 -38 -54 -42 -57 -18 -13 -58 -83 -54 -94 3 -7 5
-6 5 2 1 8 10 26 21 40 11 15 27 36 36 47 59 79 84 115 77 115 -4 0 -24 -24
-43 -53z"/>
<path d="M275 1960 c-3 -11 -10 -20 -14 -20 -4 0 -17 -13 -29 -30 -15 -20 -18
-28 -7 -24 8 4 15 10 15 14 0 4 11 19 25 34 14 15 25 31 25 37 0 16 -8 10 -15
-11z"/>
<path d="M581 1856 c-15 -16 -19 -26 -12 -31 7 -3 10 -2 9 4 -2 5 6 16 17 24
11 9 17 18 14 21 -3 3 -16 -5 -28 -18z"/>
<path d="M206 1854 c-9 -24 -2 -26 12 -4 7 11 8 20 3 20 -5 0 -12 -7 -15 -16z"/>
<path d="M118 1833 c5 -21 7 -23 10 -9 2 10 0 22 -6 28 -6 6 -7 0 -4 -19z"/>
<path d="M391 1828 c-15 -43 -8 -45 11 -3 8 19 12 35 8 35 -5 0 -13 -14 -19
-32z"/>
<path d="M481 1843 c1 -4 -1 -16 -6 -26 -12 -28 -1 -29 12 -1 7 14 7 26 2 30
-5 3 -9 2 -8 -3z"/>
<path d="M201 1782 c2 -24 10 -48 18 -55 13 -10 14 -10 5 3 -5 8 -11 31 -13
50 -4 51 -13 52 -10 2z"/>
<path d="M551 1798 c0 -18 6 -31 19 -38 14 -7 20 -7 20 0 0 5 -6 10 -14 10 -8
0 -17 12 -19 28 l-4 27 -2 -27z"/>
<path d="M135 1801 c-3 -5 -2 -12 3 -15 5 -3 9 1 9 9 0 17 -3 19 -12 6z"/>
<path d="M157 1740 c3 -19 11 -42 19 -51 8 -8 14 -21 14 -28 0 -6 8 -28 17
-49 9 -20 22 -53 29 -72 l13 -35 -5 32 c-3 17 -14 48 -25 69 -10 21 -19 45
-19 54 0 9 -6 22 -12 28 -7 7 -18 30 -25 50 l-12 37 6 -35z"/>
<path d="M375 1741 c-3 -5 -1 -12 5 -16 5 -3 10 1 10 9 0 18 -6 21 -15 7z"/>
<path d="M2329 1733 c-13 -17 -13 -17 6 -3 11 8 22 16 24 17 2 2 0 3 -6 3 -6
0 -17 -8 -24 -17z"/>
<path d="M2262 1663 c-24 -30 -45 -62 -48 -71 -4 -12 -1 -11 8 3 13 21 49 64
80 96 10 10 14 20 10 22 -4 2 -26 -20 -50 -50z"/>
<path d="M120 1675 c11 -19 20 -38 21 -43 2 -14 28 -57 29 -47 0 6 -8 22 -17
35 -10 14 -17 26 -16 27 5 7 -20 63 -28 63 -5 0 0 -16 11 -35z"/>
<path d="M231 1680 c15 -45 24 -54 15 -15 -4 17 -12 34 -17 40 -5 5 -4 -6 2
-25z"/>
<path d="M385 1682 c9 -16 21 -34 28 -40 18 -14 57 -25 57 -15 0 5 -9 9 -21
10 -25 2 -49 21 -49 38 0 7 -7 18 -15 25 -13 10 -13 8 0 -18z"/>
<path d="M257 1633 c-10 -9 -9 -23 1 -23 5 0 9 7 9 15 0 17 -1 18 -10 8z"/>
<path d="M2000 1629 c0 -15 18 -19 23 -6 3 8 -1 14 -9 14 -8 0 -14 -4 -14 -8z"/>
<path d="M738 1589 c-21 -11 -38 -21 -38 -24 0 -7 53 17 70 32 18 16 14 15
-32 -8z"/>
<path d="M1982 1582 c-11 -25 -11 -25 4 -10 9 9 15 21 13 27 -2 6 -10 -2 -17
-17z"/>
<path d="M111 1571 c-2 -26 22 -90 31 -85 5 3 5 11 -1 17 -5 7 -14 28 -19 47
-6 19 -11 29 -11 21z"/>
<path d="M176 1571 c-8 -12 3 -41 15 -41 6 0 6 8 0 19 -6 10 -7 21 -4 25 3 3
4 6 0 6 -3 0 -8 -4 -11 -9z"/>
<path d="M2161 1535 c-18 -25 -27 -45 -22 -45 6 0 11 4 11 9 0 5 12 24 26 41
15 17 24 33 22 35 -3 3 -19 -15 -37 -40z"/>
<path d="M280 1562 c0 -7 5 -12 10 -12 6 0 9 -3 8 -7 -5 -17 33 -72 53 -78 11
-4 23 -5 25 -2 3 2 -6 7 -19 11 -20 5 -49 43 -51 68 -1 4 -7 13 -13 20 -10 9
-13 9 -13 0z"/>
<path d="M785 1550 c-16 -7 -17 -9 -3 -9 9 -1 20 4 23 9 7 11 7 11 -20 0z"/>
<path d="M740 1540 c-8 -5 -12 -11 -9 -14 2 -3 11 -1 19 4 8 5 12 11 9 14 -2
3 -11 1 -19 -4z"/>
<path d="M1953 1530 c-3 -11 -9 -17 -14 -14 -5 3 -6 -3 -2 -12 6 -15 8 -14 17
7 6 13 15 27 21 31 6 5 5 8 -3 8 -8 0 -16 -9 -19 -20z"/>
<path d="M195 1510 c3 -5 8 -10 11 -10 2 0 4 5 4 10 0 6 -5 10 -11 10 -5 0 -7
-4 -4 -10z"/>
<path d="M257 1504 c-11 -11 34 -72 61 -82 51 -20 72 -24 72 -13 0 6 -3 10 -7
10 -25 -4 -54 3 -67 17 -9 8 -16 12 -16 7 -1 -4 -8 6 -17 22 -10 17 -16 33
-15 38 2 8 -2 9 -11 1z"/>
<path d="M1916 1476 c-3 -14 -12 -31 -19 -38 -15 -16 -67 -96 -67 -103 0 -3
-8 -13 -17 -23 -10 -10 -25 -29 -33 -42 -49 -75 -153 -188 -244 -265 -26 -22
-53 -45 -60 -52 -7 -6 -29 -16 -47 -22 l-34 -11 34 5 c41 6 97 50 211 167 95
97 92 94 140 163 19 28 41 54 48 58 6 4 12 12 12 18 0 5 20 39 45 76 25 36 45
72 45 79 0 22 -7 16 -14 -10z"/>
<path d="M232 1443 c19 -27 45 -53 59 -60 34 -17 78 -23 84 -13 3 5 -3 7 -13
5 -35 -6 -101 32 -119 69 -9 19 -23 38 -31 41 -8 3 1 -16 20 -42z"/>
<path d="M764 1479 c-3 -5 6 -9 20 -9 31 0 34 6 6 13 -11 3 -23 1 -26 -4z"/>
<path d="M2087 1420 c-19 -33 -32 -60 -29 -60 9 0 74 111 69 116 -2 3 -20 -23
-40 -56z"/>
<path d="M390 1459 c0 -5 5 -7 10 -4 6 3 10 8 10 11 0 2 -4 4 -10 4 -5 0 -10
-5 -10 -11z"/>
<path d="M865 1458 c17 -6 33 -16 37 -22 5 -8 8 -7 8 2 0 12 -41 33 -63 31 -7
0 2 -5 18 -11z"/>
<path d="M160 1431 c0 -5 8 -15 18 -20 9 -6 13 -11 7 -11 -5 0 1 -7 13 -16 35
-24 33 -13 -5 24 -18 19 -33 29 -33 23z"/>
<path d="M953 1400 c19 -16 38 -30 41 -30 4 0 -9 14 -27 30 -19 17 -38 30 -41
30 -4 0 9 -13 27 -30z"/>
<path d="M710 1396 c0 -2 7 -7 16 -10 8 -3 12 -2 9 4 -6 10 -25 14 -25 6z"/>
<path d="M1204 1385 c8 -8 18 -15 22 -15 3 0 1 7 -6 15 -7 8 -17 15 -22 15 -5
0 -3 -7 6 -15z"/>
<path d="M70 1382 c0 -12 62 -65 105 -90 19 -12 35 -18 35 -13 0 5 -13 14 -29
20 -15 7 -47 30 -70 52 -22 22 -41 36 -41 31z"/>
<path d="M511 1381 c-8 -5 -20 -7 -28 -4 -7 3 -13 0 -13 -5 0 -11 14 -10 65 7
21 6 24 9 10 10 -11 0 -26 -3 -34 -8z"/>
<path d="M635 1380 c-4 -6 -11 -7 -17 -4 -7 4 -8 2 -4 -5 5 -8 12 -9 19 -3 7
5 19 12 27 15 12 4 12 6 -2 6 -9 1 -20 -4 -23 -9z"/>
<path d="M795 1365 c26 -14 71 -50 100 -80 29 -30 56 -55 59 -55 4 0 -19 26
-51 58 -58 59 -119 102 -143 102 -7 0 8 -11 35 -25z"/>
<path d="M1953 1373 c-3 -10 -20 -36 -38 -58 -36 -46 -59 -85 -52 -91 2 -3 10
9 17 26 7 17 18 34 24 38 19 13 78 102 66 102 -6 0 -13 -8 -17 -17z"/>
<path d="M435 1370 c-3 -6 1 -7 9 -4 18 7 21 14 7 14 -6 0 -13 -4 -16 -10z"/>
<path d="M575 1360 c-3 -5 -1 -10 4 -10 6 0 11 5 11 10 0 6 -2 10 -4 10 -3 0
-8 -4 -11 -10z"/>
<path d="M235 1351 c49 -22 104 -37 93 -25 -3 3 -12 6 -20 8 -7 1 -17 4 -23 7
-5 4 -23 9 -40 12 -22 5 -25 4 -10 -2z"/>
<path d="M1003 1349 c9 -5 17 -16 17 -24 0 -8 4 -17 10 -20 6 -4 7 1 3 12 -9
26 -24 43 -37 43 -6 0 -3 -5 7 -11z"/>
<path d="M1238 1342 c9 -10 19 -17 21 -16 6 5 -20 34 -30 34 -5 0 -1 -8 9 -18z"/>
<path d="M505 1341 c-3 -6 -15 -8 -26 -6 -11 2 -30 0 -42 -5 -17 -6 -13 -8 18
-5 22 1 47 5 55 8 8 3 24 8 35 10 15 4 13 5 -7 6 -15 0 -29 -3 -33 -8z"/>
<path d="M2030 1320 c-18 -42 -9 -45 11 -4 9 19 13 34 9 34 -4 0 -13 -14 -20
-30z"/>
<path d="M356 1327 c3 -10 9 -15 12 -12 3 3 0 11 -7 18 -10 9 -11 8 -5 -6z"/>
<path d="M1126 1331 c-7 -10 32 -47 40 -38 3 3 -4 10 -15 17 -12 6 -19 15 -16
21 4 5 4 9 1 9 -3 0 -7 -4 -10 -9z"/>
<path d="M386 1318 c3 -5 10 -6 15 -3 13 9 11 12 -6 12 -8 0 -12 -4 -9 -9z"/>
<path d="M1268 1314 c-6 -5 40 -94 48 -94 6 0 -30 75 -39 78 -4 2 -5 8 -1 13
6 10 1 12 -8 3z"/>
<path d="M1050 1300 c1 -8 7 -24 15 -34 19 -25 19 -16 0 20 -8 16 -15 22 -15
14z"/>
<path d="M223 1273 c4 -3 25 -9 47 -13 23 -4 38 -4 33 0 -9 9 -88 22 -80 13z"/>
<path d="M1192 1229 c17 -27 33 -49 35 -49 8 0 -43 90 -54 94 -6 3 2 -17 19
-45z"/>
<path d="M1938 1250 c-12 -21 -13 -27 -3 -24 11 5 28 44 22 50 -1 2 -10 -10
-19 -26z"/>
<path d="M2000 1271 c0 -5 5 -13 10 -16 6 -3 10 -2 10 4 0 5 -4 13 -10 16 -5
3 -10 2 -10 -4z"/>
<path d="M110 1255 c14 -16 85 -39 103 -32 7 2 -7 7 -30 11 -23 4 -47 14 -54
22 -6 8 -16 14 -21 14 -6 0 -5 -7 2 -15z"/>
<path d="M350 1246 c4 -4 16 -4 26 2 16 9 14 10 -8 9 -15 -1 -23 -6 -18 -11z"/>
<path d="M430 1250 c0 -3 22 -6 49 -6 28 0 47 3 45 6 -8 8 -94 8 -94 0z"/>
<path d="M580 1240 c8 -5 26 -10 39 -10 32 0 24 6 -19 14 -25 4 -31 3 -20 -4z"/>
<path d="M1093 1236 c1 -11 9 -21 17 -23 10 -3 11 -2 4 4 -6 4 -14 15 -17 23
-5 11 -6 9 -4 -4z"/>
<path d="M1978 1215 c-9 -20 -12 -38 -7 -41 5 -3 9 -2 8 3 -1 4 3 21 10 37 17
41 8 42 -11 1z"/>
<path d="M230 1220 c0 -6 3 -9 8 -9 4 1 9 0 12 -1 3 -1 13 -3 24 -5 14 -3 16
-1 7 8 -14 14 -51 20 -51 7z"/>
<path d="M305 1221 c-6 -11 13 -26 22 -17 4 3 0 6 -8 6 -11 0 -11 2 1 10 9 6
10 10 3 10 -6 0 -14 -4 -18 -9z"/>
<path d="M380 1223 c0 -5 13 -8 30 -8 34 -1 31 8 -5 12 -14 2 -25 0 -25 -4z"/>
<path d="M655 1220 c4 -6 11 -8 16 -5 14 9 11 15 -7 15 -8 0 -12 -5 -9 -10z"/>
<path d="M475 1210 c2 -4 17 -6 32 -5 15 1 33 -1 38 -5 6 -4 26 -10 45 -14 35
-6 35 -6 5 5 -16 6 -37 13 -45 16 -22 9 -80 10 -75 3z"/>
<path d="M684 1209 c-3 -5 -2 -9 3 -8 12 3 46 -12 66 -29 10 -9 17 -11 17 -4
0 16 -78 53 -86 41z"/>
<path d="M970 1200 c6 -11 15 -20 20 -20 6 0 2 9 -7 20 -10 11 -19 20 -21 20
-1 0 2 -9 8 -20z"/>
<path d="M1840 1210 c0 -5 5 -10 11 -10 5 0 7 5 4 10 -3 6 -8 10 -11 10 -2 0
-4 -4 -4 -10z"/>
<path d="M1306 1203 c6 -4 14 -15 17 -23 5 -11 6 -9 4 4 -1 11 -9 21 -17 23
-10 3 -11 2 -4 -4z"/>
<path d="M1902 1190 c-7 -11 -9 -20 -4 -20 4 0 13 9 20 20 7 11 9 20 4 20 -4
0 -13 -9 -20 -20z"/>
<path d="M396 1192 c-3 -4 4 -9 15 -9 23 -2 25 3 4 10 -8 4 -16 3 -19 -1z"/>
<path d="M1116 1189 c6 -8 15 -25 19 -39 4 -13 15 -31 23 -39 8 -9 13 -11 11
-6 -3 6 -13 27 -22 47 -9 20 -22 40 -29 44 -10 6 -10 5 -2 -7z"/>
<path d="M153 1183 c9 -2 23 -2 30 0 6 3 -1 5 -18 5 -16 0 -22 -2 -12 -5z"/>
<path d="M200 1179 c0 -5 5 -7 10 -4 6 3 10 8 10 11 0 2 -4 4 -10 4 -5 0 -10
-5 -10 -11z"/>
<path d="M233 1175 c0 -8 4 -12 9 -9 4 3 8 9 8 15 0 5 -4 9 -8 9 -5 0 -9 -7
-9 -15z"/>
<path d="M288 1183 c6 -2 18 -2 25 0 6 3 1 5 -13 5 -14 0 -19 -2 -12 -5z"/>
<path d="M330 1186 c0 -10 28 -13 41 -5 10 6 7 9 -13 9 -16 0 -28 -2 -28 -4z"/>
<path d="M440 1186 c0 -2 16 -6 35 -8 19 -2 35 0 35 4 0 4 -16 8 -35 8 -19 0
-35 -2 -35 -4z"/>
<path d="M1797 1136 c-21 -29 -59 -71 -83 -91 -24 -21 -44 -42 -44 -48 0 -10
122 112 153 153 15 21 22 40 15 40 -2 0 -20 -25 -41 -54z"/>
<path d="M525 1169 c3 -5 24 -14 46 -20 22 -7 56 -29 76 -50 21 -21 39 -36 42
-34 10 11 -72 76 -118 94 -28 10 -49 15 -46 10z"/>
<path d="M650 1162 c0 -6 9 -12 20 -15 11 -3 20 -3 20 -1 0 2 -9 8 -20 14 -11
6 -20 7 -20 2z"/>
<path d="M990 1159 c0 -5 5 -7 10 -4 6 3 10 8 10 11 0 2 -4 4 -10 4 -5 0 -10
-5 -10 -11z"/>
<path d="M1938 1139 c-9 -16 -14 -29 -9 -29 8 0 34 50 29 56 -2 1 -11 -11 -20
-27z"/>
<path d="M780 1154 c0 -3 14 -20 32 -37 18 -18 27 -23 20 -12 -11 21 -52 59
-52 49z"/>
<path d="M1330 1126 c0 -19 3 -37 8 -40 4 -2 6 13 4 35 -5 48 -12 51 -12 5z"/>
<path d="M1854 1111 c-16 -27 -33 -47 -38 -44 -5 4 -6 1 -2 -5 4 -7 8 -12 10
-12 6 0 68 101 64 105 -2 3 -17 -17 -34 -44z"/>
<path d="M153 1143 c9 -2 25 -2 35 0 9 3 1 5 -18 5 -19 0 -27 -2 -17 -5z"/>
<path d="M215 1140 c3 -5 8 -10 11 -10 2 0 4 5 4 10 0 6 -5 10 -11 10 -5 0 -7
-4 -4 -10z"/>
<path d="M275 1140 c4 -6 11 -8 16 -5 14 9 11 15 -7 15 -8 0 -12 -5 -9 -10z"/>
<path d="M335 1140 c4 -6 11 -8 16 -5 14 9 11 15 -7 15 -8 0 -12 -5 -9 -10z"/>
<path d="M370 1139 c0 -5 5 -7 10 -4 6 3 10 8 10 11 0 2 -4 4 -10 4 -5 0 -10
-5 -10 -11z"/>
<path d="M400 1139 c0 -5 5 -7 10 -4 6 3 10 8 10 11 0 2 -4 4 -10 4 -5 0 -10
-5 -10 -11z"/>
<path d="M465 1140 c3 -5 10 -10 16 -10 5 0 9 5 9 10 0 6 -7 10 -16 10 -8 0
-12 -4 -9 -10z"/>
<path d="M1011 1145 c1 -19 18 -51 18 -35 0 8 -4 22 -9 30 -5 8 -9 11 -9 5z"/>
<path d="M1235 1140 c3 -5 8 -10 11 -10 2 0 4 5 4 10 0 6 -5 10 -11 10 -5 0
-7 -4 -4 -10z"/>
<path d="M505 1132 c4 -4 10 -7 13 -7 15 -1 59 -30 91 -59 31 -29 85 -103 86
-118 0 -12 15 -22 15 -10 0 33 -107 158 -155 181 -34 16 -60 23 -50 13z"/>
<path d="M700 1136 c0 -3 25 -30 55 -60 30 -29 55 -59 55 -64 0 -6 5 -14 10
-17 19 -12 10 13 -17 45 -43 50 -103 106 -103 96z"/>
<path d="M1246 1095 c8 -35 10 -39 17 -28 3 5 -1 19 -9 33 l-14 25 6 -30z"/>
<path d="M1035 1090 c-3 -5 -1 -10 4 -10 6 0 11 5 11 10 0 6 -2 10 -4 10 -3 0
-8 -4 -11 -10z"/>
<path d="M1910 1090 c0 -5 5 -10 11 -10 5 0 7 5 4 10 -3 6 -8 10 -11 10 -2 0
-4 -4 -4 -10z"/>
<path d="M846 1082 c-4 -7 -3 -12 2 -12 5 0 12 -9 15 -20 3 -11 11 -20 19 -20
8 0 9 3 3 8 -6 4 -15 18 -21 31 -7 17 -13 21 -18 13z"/>
<path d="M1167 1073 c3 -10 9 -22 13 -28 4 -5 6 -18 5 -28 -2 -9 0 -15 5 -12
9 6 8 19 -8 58 -12 29 -25 38 -15 10z"/>
<path d="M700 1055 c0 -8 7 -18 15 -21 8 -4 12 -11 8 -17 -3 -5 -2 -7 4 -4 10
6 38 -40 34 -56 -1 -5 3 -6 9 -2 10 6 -6 38 -47 88 -16 20 -23 24 -23 12z"/>
<path d="M1055 1050 c4 -14 14 -32 22 -40 10 -11 9 -5 -3 20 -22 45 -28 52
-19 20z"/>
<path d="M1343 1050 c-1 -11 2 -22 6 -24 4 -3 7 4 6 14 -2 27 -10 33 -12 10z"/>
<path d="M1894 1061 c3 -5 -1 -11 -9 -15 -8 -3 -15 -10 -15 -16 0 -5 9 -2 20
7 22 19 26 33 9 33 -5 0 -8 -4 -5 -9z"/>
<path d="M1260 1045 c0 -5 5 -17 10 -25 5 -8 10 -10 10 -5 0 6 -5 17 -10 25
-5 8 -10 11 -10 5z"/>
<path d="M1796 1033 c-6 -14 -5 -15 5 -6 7 7 10 15 7 18 -3 3 -9 -2 -12 -12z"/>
<path d="M897 990 c10 -19 21 -37 25 -40 3 -3 10 -17 13 -33 4 -15 11 -24 16
-22 4 3 -3 27 -18 53 -31 57 -64 95 -36 42z"/>
<path d="M1772 1015 c4 -4 -3 -16 -15 -25 -12 -10 -20 -20 -17 -22 3 -2 15 6
28 18 18 17 20 24 10 30 -7 4 -10 4 -6 -1z"/>
<path d="M1362 971 c12 -23 23 -39 25 -38 5 5 -27 66 -37 72 -5 3 0 -12 12
-34z"/>
<path d="M1843 998 c-6 -7 -13 -20 -17 -28 -7 -13 -6 -13 6 0 8 8 20 21 28 28
8 6 9 12 3 12 -6 0 -15 -6 -20 -12z"/>
<path d="M1270 990 c0 -5 5 -10 11 -10 5 0 7 5 4 10 -3 6 -8 10 -11 10 -2 0
-4 -4 -4 -10z"/>
<path d="M1640 984 c-8 -8 -42 -35 -75 -60 -33 -24 -66 -49 -72 -54 -7 -6 -13
-8 -13 -4 0 3 -6 1 -13 -5 -8 -6 -17 -8 -20 -4 -4 3 -7 2 -7 -3 0 -6 -20 -11
-45 -13 -39 -2 -50 2 -75 28 -33 33 -42 27 -10 -7 11 -12 31 -24 45 -28 32 -8
92 1 110 16 8 7 15 10 15 6 0 -6 101 66 128 92 7 6 17 12 22 12 5 0 14 9 20
20 13 24 10 25 -10 4z"/>
<path d="M1091 974 c0 -11 3 -14 6 -6 3 7 2 16 -1 19 -3 4 -6 -2 -5 -13z"/>
<path d="M1190 980 c0 -5 5 -10 10 -10 6 0 10 5 10 10 0 6 -4 10 -10 10 -5 0
-10 -4 -10 -10z"/>
<path d="M835 972 c30 -57 35 -65 35 -52 0 8 -10 26 -21 40 -11 14 -18 19 -14
12z"/>
<path d="M1277 958 c-2 -7 -1 -22 4 -33 6 -16 8 -14 8 13 1 33 -4 41 -12 20z"/>
<path d="M1714 957 c-3 -9 -22 -26 -42 -39 -20 -13 -48 -31 -62 -41 -14 -9
-40 -24 -57 -32 -18 -8 -33 -21 -33 -28 0 -8 3 -8 8 -2 4 6 18 16 32 23 86 44
180 115 168 128 -4 4 -10 0 -14 -9z"/>
<path d="M1775 935 c-16 -18 -33 -31 -37 -29 -5 3 -11 -2 -14 -10 -3 -9 -12
-16 -19 -16 -7 0 -16 -7 -19 -16 -3 -8 -10 -12 -16 -9 -5 3 -10 1 -10 -4 0
-16 4 -14 52 18 49 33 98 79 98 92 0 12 -1 11 -35 -26z"/>
<path d="M1100 935 c0 -8 2 -15 4 -15 2 0 6 7 10 15 3 8 1 15 -4 15 -6 0 -10
-7 -10 -15z"/>
<path d="M1210 915 c0 -14 4 -25 9 -25 4 0 6 11 3 25 -2 14 -6 25 -8 25 -2 0
-4 -11 -4 -25z"/>
<path d="M710 907 c0 -9 5 -19 10 -22 6 -4 8 -10 6 -14 -3 -4 0 -13 5 -21 7
-11 8 -8 5 10 -3 14 -5 26 -7 28 -1 1 -2 6 -3 11 -2 17 -16 24 -16 8z"/>
<path d="M790 909 c0 -8 4 -19 9 -24 5 -6 14 -26 19 -45 6 -19 11 -27 11 -18
1 9 -4 29 -11 45 -6 15 -12 31 -12 35 -2 14 -16 20 -16 7z"/>
<path d="M1119 893 c5 -10 15 -33 21 -50 7 -18 16 -33 21 -33 5 0 3 10 -5 23
-7 12 -16 34 -20 50 -4 15 -11 27 -16 27 -7 0 -7 -6 -1 -17z"/>
<path d="M966 853 c7 -16 14 -34 14 -42 0 -8 3 -12 6 -8 8 8 -15 77 -26 77 -5
0 -2 -12 6 -27z"/>
<path d="M1220 871 c0 -6 4 -13 10 -16 6 -3 7 1 4 9 -7 18 -14 21 -14 7z"/>
<path d="M885 860 c-3 -5 -1 -10 4 -10 6 0 11 5 11 10 0 6 -2 10 -4 10 -3 0
-8 -4 -11 -10z"/>
<path d="M901 823 c0 -12 4 -25 10 -28 6 -4 8 -14 4 -24 -5 -12 -4 -13 6 -4 9
9 9 16 2 25 -6 7 -13 22 -16 33 -4 19 -5 18 -6 -2z"/>
<path d="M1241 823 c16 -21 31 -33 41 -33 4 0 -4 11 -18 25 -29 29 -43 33 -23
8z"/>
<path d="M736 817 c3 -10 9 -15 12 -12 3 3 0 11 -7 18 -10 9 -11 8 -5 -6z"/>
<path d="M1486 815 c-11 -8 -29 -15 -40 -16 -12 0 -15 -3 -8 -6 16 -6 72 16
72 28 0 12 -1 11 -24 -6z"/>
<path d="M1580 803 c-14 -7 -18 -13 -10 -13 17 0 47 17 40 23 -3 2 -16 -2 -30
-10z"/>
<path d="M830 786 c0 -8 4 -17 9 -20 5 -4 7 3 4 14 -6 23 -13 26 -13 6z"/>
<path d="M1180 781 c7 -14 20 -32 29 -42 17 -18 95 -54 86 -39 -3 5 -21 14
-40 20 -19 6 -35 15 -35 18 -1 4 -12 21 -26 37 -22 25 -24 26 -14 6z"/>
<path d="M990 787 c0 -11 52 -108 56 -105 2 3 -7 25 -20 50 -14 26 -22 49 -19
52 4 3 1 6 -5 6 -7 0 -12 -1 -12 -3z"/>
<path d="M1296 782 c-3 -4 4 -9 15 -9 23 -2 25 3 4 10 -8 4 -16 3 -19 -1z"/>
<path d="M1390 776 c7 -7 13 -7 20 0 6 6 3 10 -10 10 -13 0 -16 -4 -10 -10z"/>
<path d="M1520 769 l-25 -20 25 12 c14 7 29 12 33 11 5 -1 6 2 2 8 -8 13 -5
13 -35 -11z"/>
<path d="M932 740 c0 -14 2 -19 5 -12 2 6 2 18 0 25 -3 6 -5 1 -5 -13z"/>
<path d="M831 734 c0 -11 3 -14 6 -6 3 7 2 16 -1 19 -3 4 -6 -2 -5 -13z"/>
<path d="M1455 741 c-9 -8 -81 -35 -97 -36 -3 0 -9 -3 -13 -7 -10 -9 12 -5 73
16 28 10 52 22 52 27 0 11 -3 11 -15 0z"/>
<path d="M830 695 c0 -8 2 -15 4 -15 2 0 6 7 10 15 3 8 1 15 -4 15 -6 0 -10
-7 -10 -15z"/>
<path d="M938 680 c2 -16 8 -28 12 -25 9 5 1 55 -9 55 -4 0 -6 -13 -3 -30z"/>
<path d="M1310 700 c0 -5 5 -10 11 -10 5 0 7 5 4 10 -3 6 -8 10 -11 10 -2 0
-4 -4 -4 -10z"/>
<path d="M831 654 c0 -11 3 -14 6 -6 3 7 2 16 -1 19 -3 4 -6 -2 -5 -13z"/>
<path d="M1055 650 c4 -14 14 -32 22 -40 10 -11 9 -5 -3 20 -22 45 -28 52 -19
20z"/>
<path d="M914 2620 c3 -42 12 -46 12 -5 0 19 -3 35 -7 35 -4 0 -6 -13 -5 -30z"/>
<path d="M769 2603 c0 -16 -3 -41 -5 -58 -3 -16 -2 -27 1 -23 9 8 19 108 11
108 -3 0 -6 -12 -7 -27z"/>
<path d="M668 2575 c2 -19 8 -38 13 -41 10 -6 0 57 -10 68 -4 5 -5 -8 -3 -27z"/>
<path d="M819 2542 c-3 -20 -2 -29 4 -23 5 5 7 19 5 32 -3 20 -5 19 -9 -9z"/>
<path d="M910 2555 c0 -8 4 -15 8 -15 5 0 9 7 9 15 0 8 -4 15 -9 15 -4 0 -8
-7 -8 -15z"/>
<path d="M900 2480 c0 -29 3 -50 7 -46 7 7 5 87 -3 95 -2 2 -4 -20 -4 -49z"/>
<path d="M684 2500 c0 -13 4 -16 10 -10 7 7 7 13 0 20 -6 6 -10 3 -10 -10z"/>
<path d="M753 2495 c4 -8 2 -17 -3 -20 -12 -7 -14 -132 -2 -138 4 -3 5 22 4
54 -2 33 0 68 4 77 12 28 13 42 2 42 -6 0 -8 -7 -5 -15z"/>
<path d="M806 2485 c4 -8 8 -15 10 -15 2 0 4 7 4 15 0 8 -4 15 -10 15 -5 0 -7
-7 -4 -15z"/>
<path d="M685 2460 c3 -5 8 -10 11 -10 2 0 4 5 4 10 0 6 -5 10 -11 10 -5 0 -7
-4 -4 -10z"/>
<path d="M812 2430 c0 -19 2 -27 5 -17 2 9 2 25 0 35 -3 9 -5 1 -5 -18z"/>
<path d="M686 2427 c3 -10 9 -15 12 -12 3 3 0 11 -7 18 -10 9 -11 8 -5 -6z"/>
<path d="M931 2363 c10 -20 22 -39 27 -42 4 -3 13 -17 20 -31 7 -14 23 -45 36
-70 13 -25 21 -49 18 -55 -3 -6 0 -5 7 1 8 8 5 22 -13 56 -13 26 -21 50 -18
54 4 4 2 4 -5 1 -6 -4 -15 5 -22 23 -5 17 -14 30 -18 30 -5 0 -15 16 -22 35
-7 19 -16 35 -21 35 -4 0 1 -17 11 -37z"/>
<path d="M820 2374 c0 -10 5 -26 10 -34 8 -11 9 -7 4 15 -8 37 -14 45 -14 19z"/>
<path d="M685 2346 c0 -13 3 -22 8 -19 4 2 7 13 7 24 0 10 -3 19 -7 19 -5 0
-8 -11 -8 -24z"/>
<path d="M847 2322 c-3 -4 3 -23 14 -42 10 -19 18 -31 19 -27 0 4 -7 21 -15
36 -8 16 -11 31 -8 35 4 3 4 6 0 6 -3 0 -8 -3 -10 -8z"/>
<path d="M750 2317 c0 -1 9 -20 20 -42 11 -22 20 -33 20 -24 0 8 -7 24 -15 35
-8 12 -11 24 -8 28 3 3 1 6 -5 6 -7 0 -12 -1 -12 -3z"/>
<path d="M670 2270 c0 -11 2 -20 4 -20 2 0 6 9 9 20 3 11 1 20 -4 20 -5 0 -9
-9 -9 -20z"/>
<path d="M890 2241 c0 -7 8 -26 17 -44 10 -18 23 -50 30 -72 12 -39 13 -39 8
-5 -5 34 -55 145 -55 121z"/>
<path d="M661 2224 c0 -11 3 -14 6 -6 3 7 2 16 -1 19 -3 4 -6 -2 -5 -13z"/>
<path d="M798 2219 c6 -9 9 -19 5 -22 -3 -4 -1 -7 5 -7 6 0 13 -13 17 -30 4
-16 11 -30 15 -30 12 0 -18 72 -38 90 -14 13 -15 13 -4 -1z"/>
<path d="M645 2199 c4 -10 2 -20 -4 -24 -6 -3 -11 -14 -11 -23 0 -11 6 -6 15
12 11 21 13 32 5 40 -8 8 -9 6 -5 -5z"/>
<path d="M614 2122 c-10 -7 -27 -42 -20 -42 2 0 11 11 20 25 17 26 17 29 0 17z"/>
<path d="M710 2113 c8 -3 27 -15 43 -25 15 -11 27 -16 27 -11 0 11 -54 43 -72
42 -9 0 -9 -2 2 -6z"/>
<path d="M846 2105 c-3 -8 -1 -15 4 -15 6 0 10 7 10 15 0 8 -2 15 -4 15 -2 0
-6 -7 -10 -15z"/>
<path d="M780 2046 c0 -8 4 -17 9 -20 5 -4 7 3 4 14 -6 23 -13 26 -13 6z"/>
<path d="M1345 2641 c-3 -5 -2 -12 3 -15 5 -3 9 1 9 9 0 17 -3 19 -12 6z"/>
<path d="M1237 2619 c4 -13 8 -18 11 -10 2 7 -1 18 -6 23 -8 8 -9 4 -5 -13z"/>
<path d="M1596 2611 c-18 -20 -31 -85 -15 -75 5 3 7 9 4 14 -10 15 14 60 37
70 15 6 17 9 7 9 -9 1 -23 -7 -33 -18z"/>
<path d="M1355 2600 c3 -5 8 -10 11 -10 2 0 4 5 4 10 0 6 -5 10 -11 10 -5 0
-7 -4 -4 -10z"/>
<path d="M1520 2585 c0 -14 2 -25 4 -25 2 0 6 11 8 25 3 14 1 25 -3 25 -5 0
-9 -11 -9 -25z"/>
<path d="M1152 2568 c7 -15 15 -23 17 -17 2 6 -4 18 -13 27 -15 15 -15 15 -4
-10z"/>
<path d="M1252 2553 c-1 -23 2 -44 8 -48 5 -3 7 -11 5 -18 -6 -16 37 -90 56
-95 9 -2 10 0 3 5 -15 12 -55 80 -53 90 1 4 -1 15 -4 23 -3 8 -8 31 -10 50 -4
33 -4 33 -5 -7z"/>
<path d="M1356 2563 c-6 -14 -5 -15 5 -6 7 7 10 15 7 18 -3 3 -9 -2 -12 -12z"/>
<path d="M1155 2491 c0 -22 3 -37 7 -35 5 3 8 21 8 40 0 19 -3 34 -8 34 -4 0
-7 -18 -7 -39z"/>
<path d="M1364 2503 c9 -18 22 -33 29 -32 9 0 9 2 -1 6 -6 2 -10 8 -8 11 2 4
-6 16 -16 27 -20 20 -20 20 -4 -12z"/>
<path d="M1703 2495 c-12 -19 -25 -52 -28 -73 -4 -20 -9 -44 -12 -52 -11 -27
-11 -40 -2 -34 5 3 7 9 4 14 -3 5 -1 11 4 14 4 3 11 27 15 54 4 33 15 58 35
80 17 18 25 32 18 32 -7 -1 -22 -16 -34 -35z"/>
<path d="M1396 2445 c4 -8 8 -15 10 -15 2 0 4 7 4 15 0 8 -4 15 -10 15 -5 0
-7 -7 -4 -15z"/>
<path d="M1515 2440 c3 -5 8 -10 11 -10 2 0 4 5 4 10 0 6 -5 10 -11 10 -5 0
-7 -4 -4 -10z"/>
<path d="M1171 2423 c-1 -12 4 -25 9 -28 12 -7 12 2 0 30 -8 19 -9 19 -9 -2z"/>
<path d="M1572 2417 c1 -14 5 -24 9 -21 9 5 6 31 -4 40 -4 4 -6 -4 -5 -19z"/>
<path d="M1401 2404 c0 -11 3 -14 6 -6 3 7 2 16 -1 19 -3 4 -6 -2 -5 -13z"/>
<path d="M1522 2395 c0 -16 2 -22 5 -12 2 9 2 23 0 30 -3 6 -5 -1 -5 -18z"/>
<path d="M1180 2370 c0 -5 5 -10 11 -10 5 0 7 5 4 10 -3 6 -8 10 -11 10 -2 0
-4 -4 -4 -10z"/>
<path d="M1332 2340 c0 -14 2 -19 5 -12 2 6 2 18 0 25 -3 6 -5 1 -5 -13z"/>
<path d="M1530 2350 c0 -5 5 -10 11 -10 5 0 7 5 4 10 -3 6 -8 10 -11 10 -2 0
-4 -4 -4 -10z"/>
<path d="M1195 2329 c6 -32 13 -34 13 -4 0 14 -4 25 -9 25 -4 0 -6 -10 -4 -21z"/>
<path d="M1420 2334 c-19 -7 -27 -13 -17 -13 10 -1 27 3 37 9 13 7 24 4 44
-11 24 -19 28 -19 48 -5 12 9 18 16 12 16 -5 0 -15 -5 -21 -11 -8 -8 -16 -6
-29 10 -21 24 -25 24 -74 5z"/>
<path d="M1573 2313 c1 -23 5 -39 9 -37 6 4 0 65 -8 73 -2 2 -3 -14 -1 -36z"/>
<path d="M1652 2297 c1 -14 5 -24 9 -21 9 5 6 31 -4 40 -4 4 -6 -4 -5 -19z"/>
<path d="M1321 2293 c-1 -12 -5 -25 -11 -28 -5 -3 -10 -10 -10 -16 0 -5 5 -9
10 -9 6 0 9 3 8 8 0 4 2 15 6 24 4 10 6 23 3 30 -3 7 -6 3 -6 -9z"/>
<path d="M1195 2280 c3 -5 8 -10 11 -10 2 0 4 5 4 10 0 6 -5 10 -11 10 -5 0
-7 -4 -4 -10z"/>
<path d="M1653 2245 c0 -8 4 -15 9 -15 4 0 8 4 8 9 0 6 -4 12 -8 15 -5 3 -9
-1 -9 -9z"/>
<path d="M1551 2223 c-10 -26 -10 -27 4 -9 8 11 21 23 27 28 10 6 9 8 -3 8 -9
0 -21 -12 -28 -27z"/>
<path d="M1370 2236 c0 -2 7 -7 16 -10 8 -3 12 -2 9 4 -6 10 -25 14 -25 6z"/>
<path d="M1206 2217 c3 -10 9 -15 12 -12 3 3 0 11 -7 18 -10 9 -11 8 -5 -6z"/>
<path d="M1300 2222 c0 -5 7 -9 15 -9 8 0 12 4 9 9 -3 4 -9 8 -15 8 -5 0 -9
-4 -9 -8z"/>
<path d="M1615 2220 c-19 -8 -19 -9 3 -9 12 -1 22 4 22 9 0 6 -1 10 -2 9 -2 0
-12 -4 -23 -9z"/>
<path d="M1348 2213 c7 -3 16 -2 19 1 4 3 -2 6 -13 5 -11 0 -14 -3 -6 -6z"/>
<path d="M1433 2213 c9 -2 17 -8 17 -12 0 -4 7 -8 16 -8 14 0 14 2 -2 14 -10
7 -25 12 -33 12 -13 -1 -12 -2 2 -6z"/>
<path d="M1212 2160 c0 -19 2 -27 5 -17 2 9 2 25 0 35 -3 9 -5 1 -5 -18z"/>
<path d="M1586 2175 c4 -8 8 -15 10 -15 2 0 4 7 4 15 0 8 -4 15 -10 15 -5 0
-7 -7 -4 -15z"/>
<path d="M1480 2173 c0 -13 34 -43 49 -43 7 0 9 5 6 11 -4 6 -9 8 -12 5 -4 -3
-14 4 -24 16 -11 11 -19 17 -19 11z"/>
<path d="M1551 2154 c0 -11 3 -14 6 -6 3 7 2 16 -1 19 -3 4 -6 -2 -5 -13z"/>
<path d="M1275 2131 c-16 -3 -25 -9 -20 -13 10 -6 55 7 55 17 0 3 -1 4 -2 4
-2 -1 -16 -4 -33 -8z"/>
<path d="M1380 2126 c0 -2 11 -6 25 -8 14 -3 25 -1 25 3 0 5 -11 9 -25 9 -14
0 -25 -2 -25 -4z"/>
<path d="M1220 2116 c0 -2 7 -7 16 -10 8 -3 12 -2 9 4 -6 10 -25 14 -25 6z"/>
<path d="M2345 2628 c-4 -13 -21 -35 -39 -50 -17 -16 -26 -28 -20 -28 12 0 53
44 72 78 7 12 8 22 3 22 -5 0 -13 -10 -16 -22z"/>
<path d="M2093 2579 c-6 -6 -21 -16 -34 -23 -12 -6 -24 -17 -25 -24 -1 -7 0
-8 3 -2 2 5 10 7 15 4 7 -4 8 -2 4 4 -4 7 -1 12 6 12 16 1 53 28 47 35 -3 2
-10 0 -16 -6z"/>
<path d="M2572 2550 c0 -19 2 -27 5 -17 2 9 2 25 0 35 -3 9 -5 1 -5 -18z"/>
<path d="M2260 2541 c0 -5 -8 -11 -17 -14 -51 -17 -210 -133 -199 -145 3 -2
12 3 21 11 41 42 113 92 178 125 23 12 37 32 22 32 -3 0 -5 -4 -5 -9z"/>
<path d="M1980 2488 l-22 -33 25 27 c14 15 28 24 33 20 4 -4 4 -1 0 6 -10 17
-12 16 -36 -20z"/>
<path d="M2426 2495 c-3 -8 -12 -15 -19 -15 -8 0 -20 -7 -27 -15 -7 -8 -27
-17 -46 -21 -19 -3 -36 -10 -39 -14 -6 -10 66 9 81 21 6 5 15 5 19 1 5 -4 5
-1 1 6 -4 7 -2 12 7 12 8 0 22 9 32 20 10 11 13 20 8 20 -6 0 -13 -7 -17 -15z"/>
<path d="M2546 2473 c-3 -10 -20 -33 -36 -50 -17 -18 -26 -33 -20 -33 6 0 13
7 16 15 4 8 11 12 17 8 6 -3 7 -1 3 5 -4 7 -4 12 1 12 4 0 16 14 25 30 9 17
13 30 8 30 -5 0 -11 -8 -14 -17z"/>
<path d="M1931 2436 c-9 -11 -9 -16 1 -22 7 -4 10 -4 6 1 -4 4 0 14 10 21 9 7
12 14 6 14 -6 0 -17 -6 -23 -14z"/>
<path d="M2235 2411 c-36 -17 -120 -90 -112 -98 2 -1 25 17 52 42 26 25 53 45
59 45 7 0 21 7 32 15 25 19 18 18 -31 -4z"/>
<path d="M1896 2385 c-13 -19 -13 -23 -2 -19 8 3 16 14 19 25 7 25 3 24 -17
-6z"/>
<path d="M2450 2371 c-45 -24 -57 -28 -72 -25 -10 1 -18 -2 -18 -7 0 -10 35
-7 46 4 4 4 14 7 23 7 9 0 25 7 35 15 21 16 12 19 -14 6z"/>
<path d="M2000 2332 c-14 -20 -28 -39 -31 -42 -8 -7 -40 -69 -37 -72 2 -2 -7
-17 -19 -34 -12 -17 -19 -34 -16 -38 5 -5 31 40 37 64 4 14 33 60 68 108 21
28 35 52 31 52 -4 0 -19 -17 -33 -38z"/>
<path d="M1857 2318 c-14 -24 -15 -34 -6 -42 8 -7 10 -7 6 0 -3 6 3 25 13 42
11 18 16 32 12 32 -4 0 -15 -14 -25 -32z"/>
<path d="M2318 2323 c6 -2 18 -2 25 0 6 3 1 5 -13 5 -14 0 -19 -2 -12 -5z"/>
<path d="M2283 2313 c-7 -2 -13 -9 -13 -15 0 -7 5 -7 13 1 8 6 18 7 22 3 5 -4
5 -1 1 6 -4 6 -8 12 -9 11 -1 0 -8 -3 -14 -6z"/>
<path d="M2100 2289 c0 -5 5 -7 10 -4 6 3 10 8 10 11 0 2 -4 4 -10 4 -5 0 -10
-5 -10 -11z"/>
<path d="M2197 2239 c-65 -69 -55 -71 13 -3 30 30 50 54 45 54 -6 -1 -32 -23
-58 -51z"/>
<path d="M2085 2270 c3 -5 2 -10 -2 -10 -5 0 -14 -10 -22 -22 -13 -22 -13 -22
12 1 23 20 28 41 11 41 -3 0 -2 -4 1 -10z"/>
<path d="M1822 2245 c-9 -18 -8 -26 1 -31 7 -4 9 -4 5 1 -4 4 -3 16 3 27 6 11
9 22 6 24 -2 2 -9 -7 -15 -21z"/>
<path d="M2029 2180 c-6 -16 -15 -30 -19 -30 -7 0 -31 -55 -30 -69 1 -6 22 31
52 89 7 14 17 28 23 32 6 5 5 8 -3 8 -7 0 -18 -13 -23 -30z"/>
<path d="M2108 2125 c-15 -25 -26 -45 -23 -45 2 0 17 20 34 45 17 25 27 45 23
45 -4 0 -19 -20 -34 -45z"/>
<path d="M1880 2115 c0 -8 2 -15 4 -15 2 0 6 7 10 15 3 8 1 15 -4 15 -6 0 -10
-7 -10 -15z"/>
<path d="M1871 2074 c0 -11 3 -14 6 -6 3 7 2 16 -1 19 -3 4 -6 -2 -5 -13z"/>
<path d="M2058 2040 c-9 -16 -14 -31 -10 -34 4 -2 14 12 23 30 20 42 10 45
-13 4z"/>
<path d="M1852 2026 c-17 -39 -15 -56 3 -22 9 16 14 34 12 39 -1 5 -8 -3 -15
-17z"/>
<path d="M1831 1960 c-1 -8 -7 -27 -15 -42 -8 -15 -17 -42 -20 -60 l-6 -33 11
30 c6 17 17 45 26 63 8 18 12 38 9 45 -3 8 -5 7 -5 -3z"/>
<path d="M1130 1923 c8 -3 30 -14 48 -25 17 -11 32 -17 32 -14 0 10 -64 46
-80 45 -13 0 -13 -1 0 -6z"/>
<path d="M1470 1750 c71 -56 80 -65 75 -80 -5 -12 -4 -13 7 -2 11 11 6 19 -27
48 -54 48 -63 54 -72 54 -4 -1 3 -9 17 -20z"/>
<path d="M1743 1635 c0 -8 4 -12 9 -9 4 3 8 9 8 15 0 5 -4 9 -8 9 -5 0 -9 -7
-9 -15z"/>
<path d="M1716 1604 c-4 -9 -4 -19 -1 -22 2 -3 7 3 11 12 4 9 4 19 1 22 -2 3
-7 -3 -11 -12z"/>
<path d="M1454 1359 c2 -19 4 -37 5 -41 3 -16 57 -36 72 -27 12 8 12 9 -1 7
-39 -6 -83 33 -66 60 2 4 1 14 -4 22 -5 9 -7 1 -6 -21z"/>
<path d="M1601 1346 c-17 -18 -19 -26 -10 -31 7 -5 10 -4 5 3 -3 5 6 20 21 31
16 11 23 21 17 21 -6 0 -21 -11 -33 -24z"/>
<path d="M1560 1300 c-8 -5 -12 -12 -9 -15 4 -3 12 1 19 10 14 17 11 19 -10 5z"/>
<path d="M2690 2631 c0 -25 6 -27 13 -6 4 8 2 17 -3 20 -6 4 -10 -3 -10 -14z"/>
<path d="M2770 2536 c0 -19 3 -37 8 -40 4 -2 6 13 4 35 -5 48 -12 51 -12 5z"/>
<path d="M2721 2514 c0 -11 3 -14 6 -6 3 7 2 16 -1 19 -3 4 -6 -2 -5 -13z"/>
<path d="M2780 2467 c0 -9 4 -18 9 -21 5 -4 8 1 7 9 -3 21 -16 31 -16 12z"/>
<path d="M2726 2437 c-4 -19 -17 -45 -30 -58 -43 -44 -96 -111 -96 -122 0 -6
8 0 17 13 21 29 36 48 80 96 29 32 52 89 40 100 -2 3 -7 -11 -11 -29z"/>
<path d="M2788 2418 c9 -11 10 -18 2 -23 -14 -8 -13 -25 2 -25 6 0 8 3 5 7 -4
3 -2 12 3 18 7 9 5 17 -7 26 -16 13 -17 12 -5 -3z"/>
<path d="M2763 2334 c-6 -13 -8 -24 -4 -24 10 0 31 39 23 44 -4 2 -12 -7 -19
-20z"/>
<path d="M2743 2288 c-6 -7 -13 -24 -17 -38 l-6 -25 12 25 c7 14 17 28 22 32
6 4 8 10 5 13 -4 3 -11 0 -16 -7z"/>
<path d="M2555 2223 c-44 -49 -44 -53 0 -11 21 21 37 39 35 41 -3 2 -18 -12
-35 -30z"/>
<path d="M2695 2210 c-10 -31 -61 -76 -114 -102 -28 -13 -52 -28 -55 -35 -8
-20 117 58 147 91 45 51 47 55 38 61 -5 3 -12 -4 -16 -15z"/>
<path d="M2784 2196 c-9 -15 -14 -29 -10 -33 3 -3 6 -1 6 5 0 6 7 18 16 27 9
9 14 18 11 21 -3 3 -13 -6 -23 -20z"/>
<path d="M2480 2164 c-13 -13 -30 -24 -37 -24 -6 0 -14 -4 -17 -9 -4 -5 2 -7
11 -4 22 5 79 50 73 56 -3 3 -16 -6 -30 -19z"/>
<path d="M2747 2132 c-10 -10 -17 -23 -17 -28 0 -17 -63 -72 -100 -88 -19 -8
-29 -15 -22 -16 37 -1 132 76 132 107 0 7 4 13 9 13 5 0 11 7 15 15 7 20 3 19
-17 -3z"/>
<path d="M2390 2111 c0 -5 -13 -14 -30 -21 -16 -7 -30 -16 -30 -20 0 -4 -10
-11 -22 -14 -36 -10 -92 -62 -77 -71 8 -5 10 -4 5 3 -4 7 -3 12 2 12 5 0 22
11 38 25 16 14 32 25 36 25 4 0 27 13 50 29 24 16 47 27 52 24 5 -4 6 -1 2 5
-8 14 -26 16 -26 3z"/>
<path d="M2495 2060 c-3 -5 -1 -10 4 -10 6 0 11 5 11 10 0 6 -2 10 -4 10 -3 0
-8 -4 -11 -10z"/>
<path d="M2565 1990 c-3 -5 -2 -10 4 -10 5 0 13 5 16 10 3 6 2 10 -4 10 -5 0
-13 -4 -16 -10z"/>
<path d="M2176 1933 c-20 -25 -36 -53 -35 -62 0 -9 4 -6 10 9 6 13 13 27 17
30 11 7 54 70 49 70 -2 0 -21 -21 -41 -47z"/>
<path d="M2630 1740 c-23 -7 -23 -8 -3 -9 12 -1 25 4 28 9 3 6 5 10 3 9 -2 -1
-14 -5 -28 -9z"/>
<path d="M2678 1743 c7 -3 16 -2 19 1 4 3 -2 6 -13 5 -11 0 -14 -3 -6 -6z"/>
<path d="M2566 1718 c3 -4 9 -8 15 -8 5 0 9 4 9 8 0 5 -7 9 -15 9 -8 0 -12 -4
-9 -9z"/>
<path d="M2525 1710 c-19 -8 -19 -9 3 -9 12 -1 22 4 22 9 0 6 -1 10 -2 9 -2 0
-12 -4 -23 -9z"/>
<path d="M2713 1693 c9 -2 23 -2 30 0 6 3 -1 5 -18 5 -16 0 -22 -2 -12 -5z"/>
<path d="M2645 1682 c-2 -2 -25 -10 -52 -17 -26 -7 -41 -14 -33 -14 8 -1 31 4
50 10 19 5 43 12 54 14 27 6 32 14 7 12 -12 -1 -24 -3 -26 -5z"/>
<path d="M2489 1628 l-24 -20 25 14 c14 8 33 14 43 12 11 -1 16 0 13 4 -13 13
-33 9 -57 -10z"/>
<path d="M2695 1630 l-30 -8 33 -1 c17 0 32 4 32 9 0 6 -1 9 -2 9 -2 -1 -16
-5 -33 -9z"/>
<path d="M2623 1613 c9 -2 23 -2 30 0 6 3 -1 5 -18 5 -16 0 -22 -2 -12 -5z"/>
<path d="M2550 1593 c-18 -9 -20 -13 -8 -13 9 0 19 4 23 9 3 6 15 8 27 6 11
-3 18 -1 14 2 -11 12 -30 10 -56 -4z"/>
<path d="M2498 1573 c7 -3 16 -2 19 1 4 3 -2 6 -13 5 -11 0 -14 -3 -6 -6z"/>
<path d="M2738 1573 c6 -2 18 -2 25 0 6 3 1 5 -13 5 -14 0 -19 -2 -12 -5z"/>
<path d="M2705 1560 c-3 -5 -16 -10 -28 -11 -12 0 -16 -3 -9 -6 7 -3 20 -1 30
3 9 4 21 6 25 5 5 -1 6 3 2 9 -8 13 -12 13 -20 0z"/>
<path d="M2615 1530 c-4 -6 -11 -8 -16 -5 -5 4 -9 1 -9 -4 0 -14 2 -14 36 4
18 9 23 15 12 15 -9 0 -20 -5 -23 -10z"/>
<path d="M2530 1504 l-45 -14 39 5 c22 2 44 9 50 15 5 5 8 9 6 9 -3 -1 -25 -8
-50 -15z"/>
<path d="M2419 1457 c-31 -18 -67 -44 -80 -59 -43 -48 -59 -68 -53 -68 3 0 -2
-10 -10 -22 -9 -12 -15 -36 -15 -53 1 -30 1 -30 8 5 15 72 95 165 170 198 20
9 40 15 44 14 5 -2 6 2 2 8 -3 5 -7 10 -8 9 -1 0 -27 -15 -58 -32z"/>
<path d="M2259 1384 c-9 -19 -14 -34 -10 -34 10 0 41 59 33 64 -4 2 -14 -12
-23 -30z"/>
<path d="M2196 1350 c-14 -27 -23 -50 -19 -50 9 1 55 91 50 97 -3 2 -16 -19
-31 -47z"/>
<path d="M2137 1320 c-8 -22 -13 -40 -11 -40 7 0 36 71 31 76 -2 2 -11 -14
-20 -36z"/>
<path d="M2220 1298 c-6 -24 -16 -52 -22 -63 -10 -18 -9 -18 4 -7 9 7 19 29
23 50 4 20 11 40 17 43 7 4 7 9 0 13 -7 4 -15 -10 -22 -36z"/>
<path d="M2166 1275 c4 -8 8 -15 10 -15 2 0 4 7 4 15 0 8 -4 15 -10 15 -5 0
-7 -7 -4 -15z"/>
<path d="M2103 1240 c-6 -16 -10 -30 -7 -30 2 0 10 14 19 30 9 17 12 30 7 30
-4 0 -13 -13 -19 -30z"/>
<path d="M2150 1241 c0 -5 -5 -22 -12 -38 -6 -15 -12 -30 -13 -33 -5 -14 -26
-64 -31 -71 -3 -5 0 -9 5 -9 6 0 11 4 11 9 0 5 5 22 12 38 6 15 12 30 13 33 5
14 26 64 31 71 3 5 0 9 -5 9 -6 0 -11 -4 -11 -9z"/>
<path d="M2190 1190 c0 -11 2 -20 4 -20 2 0 6 9 9 20 3 11 1 20 -4 20 -5 0 -9
-9 -9 -20z"/>
<path d="M2262 1185 c0 -16 2 -22 5 -12 2 9 2 23 0 30 -3 6 -5 -1 -5 -18z"/>
<path d="M2080 1189 c0 -5 5 -7 10 -4 6 3 10 8 10 11 0 2 -4 4 -10 4 -5 0 -10
-5 -10 -11z"/>
<path d="M2800 1173 c-4 -22 -6 -27 -23 -67 -9 -21 -17 -43 -17 -48 0 -5 -5
-6 -12 -2 -7 4 -8 3 -4 -5 8 -12 26 -6 26 10 0 5 9 29 21 54 11 24 19 50 16
57 -4 10 -6 10 -7 1z"/>
<path d="M2065 1149 c-10 -30 -2 -32 12 -3 6 13 7 24 3 24 -5 0 -12 -9 -15
-21z"/>
<path d="M2193 1145 c0 -8 4 -12 9 -9 5 3 6 10 3 15 -9 13 -12 11 -12 -6z"/>
<path d="M2270 1134 c0 -8 5 -12 10 -9 6 4 8 11 5 16 -9 14 -15 11 -15 -7z"/>
<path d="M2043 1105 c0 -8 4 -15 9 -15 4 0 8 4 8 9 0 6 -4 12 -8 15 -5 3 -9
-1 -9 -9z"/>
<path d="M2290 1106 c0 -8 4 -17 9 -20 5 -4 7 3 4 14 -6 23 -13 26 -13 6z"/>
<path d="M2190 1059 c0 -5 5 -7 10 -4 6 3 10 8 10 11 0 2 -4 4 -10 4 -5 0 -10
-5 -10 -11z"/>
<path d="M2344 1034 c45 -39 107 -75 86 -49 -7 8 -19 15 -26 15 -8 0 -14 5
-14 10 0 6 -11 15 -25 20 -14 5 -28 17 -31 25 -4 8 -11 15 -18 15 -6 -1 7 -17
28 -36z"/>
<path d="M2190 1029 c0 -5 5 -7 10 -4 6 3 10 8 10 11 0 2 -4 4 -10 4 -5 0 -10
-5 -10 -11z"/>
<path d="M2590 1021 c0 -9 79 -6 87 3 4 3 -14 6 -40 5 -26 -1 -47 -5 -47 -8z"/>
<path d="M2695 1020 c3 -5 8 -10 11 -10 2 0 4 5 4 10 0 6 -5 10 -11 10 -5 0
-7 -4 -4 -10z"/>
<path d="M2535 1010 c-4 -6 3 -10 14 -10 25 0 27 6 6 13 -8 4 -17 2 -20 -3z"/>
<path d="M2208 982 c-3 -10 1 -27 8 -37 12 -17 14 -17 14 -2 0 9 -4 17 -9 17
-5 0 -7 9 -4 20 3 11 3 20 0 20 -2 0 -7 -8 -9 -18z"/>
<path d="M2483 993 c9 -2 23 -2 30 0 6 3 -1 5 -18 5 -16 0 -22 -2 -12 -5z"/>
<path d="M2670 956 c0 -2 13 -6 29 -8 17 -2 28 -1 25 4 -5 8 -54 12 -54 4z"/>
<path d="M2564 938 c-3 -4 -20 -9 -37 -9 -25 -1 -27 -3 -9 -6 13 -3 31 -1 40
3 9 4 20 8 24 8 14 2 17 13 3 13 -9 0 -18 -4 -21 -9z"/>
<path d="M2638 943 c7 -3 16 -2 19 1 4 3 -2 6 -13 5 -11 0 -14 -3 -6 -6z"/>
<path d="M2254 899 c16 -13 36 -19 53 -16 l28 4 -28 2 c-16 0 -35 8 -43 16 -9
8 -20 15 -26 15 -6 0 1 -9 16 -21z"/>
<path d="M2468 913 c7 -3 16 -2 19 1 4 3 -2 6 -13 5 -11 0 -14 -3 -6 -6z"/>
<path d="M2396 901 c9 -9 34 -9 34 -1 0 5 -9 8 -20 7 -10 -1 -17 -3 -14 -6z"/>
<path d="M2350 889 c0 -5 9 -9 20 -9 11 0 20 2 20 4 0 2 -9 6 -20 9 -11 3 -20
1 -20 -4z"/>
<path d="M2756 828 c3 -5 10 -6 15 -3 13 9 11 12 -6 12 -8 0 -12 -4 -9 -9z"/>
<path d="M2790 830 c0 -5 5 -10 11 -10 5 0 7 5 4 10 -3 6 -8 10 -11 10 -2 0
-4 -4 -4 -10z"/>
<path d="M2600 820 c0 -5 5 -10 11 -10 5 0 7 5 4 10 -3 6 -8 10 -11 10 -2 0
-4 -4 -4 -10z"/>
<path d="M2634 818 c-3 -4 2 -8 10 -8 8 0 17 4 20 8 3 5 -2 9 -10 9 -8 0 -17
-4 -20 -9z"/>
<path d="M2493 803 c9 -2 25 -2 35 0 9 3 1 5 -18 5 -19 0 -27 -2 -17 -5z"/>
<path d="M2418 793 c12 -2 30 -2 40 0 9 3 -1 5 -23 4 -22 0 -30 -2 -17 -4z"/>
<path d="M2649 680 c-6 -4 1 -7 15 -7 14 0 26 3 26 7 0 3 -7 7 -15 7 -8 0 -19
-4 -26 -7z"/>
<path d="M2755 680 c3 -5 8 -10 11 -10 2 0 4 5 4 10 0 6 -5 10 -11 10 -5 0 -7
-4 -4 -10z"/>
<path d="M2486 672 c-3 -5 1 -9 9 -9 8 0 15 4 15 9 0 4 -4 8 -9 8 -6 0 -12 -4
-15 -8z"/>
<path d="M2523 674 c7 -7 78 -11 82 -4 2 3 -17 7 -42 7 -25 1 -43 0 -40 -3z"/>
<path d="M2708 673 c7 -3 16 -2 19 1 4 3 -2 6 -13 5 -11 0 -14 -3 -6 -6z"/>
<path d="M2434 658 c-3 -4 2 -8 10 -8 8 0 17 4 20 8 3 5 -2 9 -10 9 -8 0 -17
-4 -20 -9z"/>
<path d="M795 1710 c-3 -5 1 -10 10 -10 9 0 13 5 10 10 -3 6 -8 10 -10 10 -2
0 -7 -4 -10 -10z"/>
<path d="M2615 1420 c-4 -6 -10 -8 -15 -5 -5 3 -27 -5 -49 -19 -21 -14 -42
-22 -47 -18 -4 4 -4 1 0 -5 5 -9 17 -6 46 12 22 14 46 22 55 19 8 -3 15 -1 15
4 0 6 17 13 38 15 l37 4 -37 1 c-20 1 -40 -3 -43 -8z"/>
<path d="M2700 1414 c0 -5 7 -18 15 -28 8 -11 15 -16 15 -10 0 5 -7 18 -15 28
-8 11 -15 16 -15 10z"/>
<path d="M2464 1335 c-15 -14 -23 -25 -18 -25 10 0 60 50 51 50 -3 0 -18 -11
-33 -25z"/>
<path d="M2715 1350 c3 -5 8 -10 11 -10 2 0 4 5 4 10 0 6 -5 10 -11 10 -5 0
-7 -4 -4 -10z"/>
<path d="M2686 1295 c-17 -21 -21 -32 -11 -29 8 3 15 10 15 14 0 5 7 16 16 25
9 9 14 18 12 21 -3 2 -17 -11 -32 -31z"/>
<path d="M2421 1270 c0 -22 46 -52 72 -47 19 4 19 4 -5 6 -16 0 -34 12 -47 29
-13 17 -20 21 -20 12z"/>
<path d="M2595 1234 l-30 -13 30 6 c32 6 41 11 34 17 -2 2 -17 -2 -34 -10z"/>
<path d="M2545 1220 c3 -5 8 -10 11 -10 2 0 4 5 4 10 0 6 -5 10 -11 10 -5 0
-7 -4 -4 -10z"/>
<path d="M210 1059 c0 -5 5 -7 10 -4 6 3 10 8 10 11 0 2 -4 4 -10 4 -5 0 -10
-5 -10 -11z"/>
<path d="M243 1064 c3 -3 32 -7 64 -9 32 -1 58 -4 58 -5 0 -1 10 -3 23 -6 12
-2 22 0 22 5 0 6 -9 8 -20 6 -11 -2 -22 0 -24 4 -3 4 -33 8 -67 9 -34 0 -59
-1 -56 -4z"/>
<path d="M434 1036 c11 -9 27 -16 35 -15 14 0 14 1 1 6 -8 3 -24 10 -35 15
-20 9 -20 9 -1 -6z"/>
<path d="M143 1024 c8 -8 123 -11 142 -3 12 4 -15 7 -63 7 -46 0 -82 -2 -79
-4z"/>
<path d="M310 1020 c0 -5 3 -9 8 -9 4 1 9 0 12 -1 3 -1 12 -3 20 -5 8 -2 26
-7 40 -10 23 -6 23 -6 -4 9 -15 9 -32 14 -36 11 -5 -3 -11 -1 -15 5 -8 13 -25
13 -25 0z"/>
<path d="M90 1011 c0 -5 11 -8 25 -8 30 0 28 6 -4 12 -11 2 -21 0 -21 -4z"/>
<path d="M485 999 c24 -12 58 -67 49 -80 -3 -5 0 -9 5 -9 17 0 13 17 -14 60
-14 23 -33 40 -43 39 -14 0 -14 -2 3 -10z"/>
<path d="M420 981 c0 -5 8 -16 18 -23 9 -7 23 -24 30 -38 l12 -25 -6 25 c-6
25 -54 79 -54 61z"/>
<path d="M275 963 c-11 -2 -30 -6 -42 -9 -13 -2 -23 -10 -23 -16 0 -9 3 -9 12
0 7 7 24 12 39 12 15 0 31 5 34 10 3 6 5 9 3 9 -2 -1 -12 -3 -23 -6z"/>
<path d="M320 960 c-13 -8 -12 -10 3 -10 9 0 17 5 17 10 0 12 -1 12 -20 0z"/>
<path d="M360 952 c34 -16 60 -38 61 -52 0 -12 2 -12 6 -1 6 16 -43 61 -66 60
-14 0 -14 -1 -1 -7z"/>
<path d="M176 914 c-23 -23 -20 -30 4 -9 11 10 20 20 20 22 0 7 -9 2 -24 -13z"/>
<path d="M470 880 c0 -5 5 -10 11 -10 5 0 7 5 4 10 -3 6 -8 10 -11 10 -2 0 -4
-4 -4 -10z"/>
<path d="M167 863 c13 -35 35 -61 74 -88 21 -16 42 -25 46 -22 3 4 -3 10 -13
14 -10 4 -28 15 -38 25 -11 10 -23 18 -27 18 -3 0 -12 14 -19 30 -14 33 -34
53 -23 23z"/>
<path d="M431 860 c0 -14 -8 -36 -17 -48 -8 -12 -11 -22 -6 -22 14 0 35 55 29
77 -3 13 -5 11 -6 -7z"/>
<path d="M552 850 c0 -19 2 -27 5 -17 2 9 2 25 0 35 -3 9 -5 1 -5 -18z"/>
<path d="M473 835 c-3 -9 -3 -18 -1 -21 3 -3 8 4 11 16 6 23 -1 27 -10 5z"/>
<path d="M547 803 c-4 -3 -7 -15 -7 -25 0 -10 -4 -18 -10 -18 -5 0 -10 -5 -10
-11 0 -21 27 10 33 36 5 27 4 29 -6 18z"/>
<path d="M450 790 c0 -5 5 -10 10 -10 6 0 10 5 10 10 0 6 -4 10 -10 10 -5 0
-10 -4 -10 -10z"/>
<path d="M370 770 c-13 -8 -13 -10 2 -10 9 0 20 5 23 10 8 13 -5 13 -25 0z"/>
<path d="M425 759 c-11 -16 -1 -19 13 -3 7 8 8 14 3 14 -5 0 -13 -5 -16 -11z"/>
<path d="M330 749 c0 -5 5 -7 10 -4 6 3 10 8 10 11 0 2 -4 4 -10 4 -5 0 -10
-5 -10 -11z"/>
<path d="M384 729 c-19 -22 -19 -22 4 -10 12 6 22 16 22 21 0 15 -5 12 -26
-11z"/>
<path d="M475 695 c-21 -18 -42 -33 -45 -33 -8 2 -60 -21 -60 -26 0 -20 134
55 144 80 7 19 7 19 -39 -21z"/>
<path d="M334 704 c-18 -14 -18 -15 4 -4 12 6 22 13 22 15 0 8 -5 6 -26 -11z"/>
<path d="M176 702 c-3 -5 1 -9 9 -9 8 0 12 4 9 9 -3 4 -7 8 -9 8 -2 0 -6 -4
-9 -8z"/>
<path d="M210 700 c0 -5 5 -10 11 -10 5 0 7 5 4 10 -3 6 -8 10 -11 10 -2 0 -4
-4 -4 -10z"/>
<path d="M286 702 c-3 -5 1 -9 9 -9 8 0 12 4 9 9 -3 4 -7 8 -9 8 -2 0 -6 -4
-9 -8z"/>
<path d="M248 693 c7 -3 16 -2 19 1 4 3 -2 6 -13 5 -11 0 -14 -3 -6 -6z"/>
<path d="M170 640 c0 -5 5 -10 11 -10 5 0 7 5 4 10 -3 6 -8 10 -11 10 -2 0 -4
-4 -4 -10z"/>
<path d="M220 636 c0 -2 7 -6 15 -10 8 -3 15 -1 15 4 0 6 -7 10 -15 10 -8 0
-15 -2 -15 -4z"/>
<path d="M308 633 c12 -2 30 -2 40 0 9 3 -1 5 -23 4 -22 0 -30 -2 -17 -4z"/>
<path d="M2715 459 c-26 -6 -23 -7 18 -8 26 0 47 1 47 3 0 9 -37 12 -65 5z"/>
</g>
</svg>
