<svg width="10" height="20" viewBox="0 0 10 20" fill="none" xmlns="http://www.w3.org/2000/svg">
<g clip-path="url(#clip0_18_1023)">
<path d="M8.66666 9.99996C8.6672 10.2726 8.57226 10.5367 8.39833 10.7466L2.565 17.7466C2.36697 17.9849 2.0824 18.1347 1.77391 18.1632C1.46541 18.1916 1.15825 18.0963 0.919996 17.8983C0.681743 17.7003 0.531915 17.4157 0.503472 17.1072C0.475029 16.7987 0.570301 16.4915 0.768329 16.2533L5.995 9.99996L0.954997 3.74663C0.858086 3.62729 0.785716 3.48998 0.742045 3.34258C0.698375 3.19519 0.684266 3.04062 0.700528 2.88775C0.71679 2.73488 0.763103 2.58674 0.836806 2.45183C0.910509 2.31692 1.01015 2.1979 1.13 2.10163C1.24995 1.99478 1.39069 1.91386 1.54337 1.86394C1.69606 1.81401 1.85741 1.79616 2.01732 1.81149C2.17722 1.82683 2.33224 1.87502 2.47266 1.95305C2.61307 2.03108 2.73586 2.13727 2.83333 2.26496L8.46833 9.26496C8.61477 9.48089 8.6846 9.73968 8.66666 9.99996Z" fill="#F4442E"/>
</g>
<defs>
<clipPath id="clip0_18_1023">
<rect width="20" height="10" fill="white" transform="translate(0 20) rotate(-90)"/>
</clipPath>
</defs>
</svg>
