<svg width="26" height="27" viewBox="0 0 26 27" fill="none" xmlns="http://www.w3.org/2000/svg">
<g clip-path="url(#clip0_538_1370)">
<path d="M26 13.5C26 6.32029 20.1797 0.5 13 0.5C5.82029 0.5 0 6.32029 0 13.5C0 19.9886 4.75389 25.3668 10.9688 26.3421V17.2578H7.66797V13.5H10.9688V10.6359C10.9688 7.37781 12.9096 5.57812 15.879 5.57812C17.3009 5.57812 18.7891 5.83203 18.7891 5.83203V9.03125H17.1498C15.535 9.03125 15.0313 10.0334 15.0313 11.0625V13.5H18.6367L18.0604 17.2578H15.0313V26.3421C21.2461 25.3668 26 19.9886 26 13.5Z" fill="#232E2E"/>
</g>
<defs>
<clipPath id="clip0_538_1370">
<rect width="26" height="26" fill="white" transform="translate(0 0.5)"/>
</clipPath>
</defs>
</svg>
