<svg width="23" height="22" viewBox="0 0 23 22" fill="none" xmlns="http://www.w3.org/2000/svg">
<g clip-path="url(#clip0_323_1703)">
<path d="M11.2222 6.27344C10.2873 6.27344 9.37351 6.55065 8.59623 7.07001C7.81895 7.58937 7.21314 8.32756 6.85539 9.19122C6.49765 10.0549 6.40405 11.0052 6.58643 11.9221C6.7688 12.839 7.21896 13.6812 7.87998 14.3422C8.541 15.0032 9.3832 15.4534 10.3001 15.6357C11.2169 15.8181 12.1673 15.7245 13.0309 15.3668C13.8946 15.009 14.6328 14.4032 15.1522 13.6259C15.6715 12.8487 15.9487 11.9348 15.9487 11C15.9473 9.74687 15.4489 8.54548 14.5628 7.65939C13.6767 6.77329 12.4753 6.27486 11.2222 6.27344V6.27344ZM11.2222 14.8672C10.4573 14.8672 9.70963 14.6404 9.07367 14.2154C8.43772 13.7905 7.94205 13.1865 7.64935 12.4799C7.35665 11.7733 7.28007 10.9957 7.42929 10.2455C7.5785 9.49539 7.94682 8.80632 8.48765 8.26549C9.02849 7.72465 9.71756 7.35634 10.4677 7.20712C11.2179 7.0579 11.9954 7.13449 12.7021 7.42718C13.4087 7.71988 14.0127 8.21555 14.4376 8.85151C14.8625 9.48746 15.0894 10.2351 15.0894 11C15.0882 12.0253 14.6804 13.0083 13.9554 13.7333C13.2304 14.4583 12.2475 14.8661 11.2222 14.8672ZM15.9487 0.6875H6.49561C5.01464 0.689177 3.59481 1.27823 2.5476 2.32544C1.5004 3.37264 0.911345 4.79247 0.909668 6.27344V15.7266C0.911345 17.2075 1.5004 18.6274 2.5476 19.6746C3.59481 20.7218 5.01464 21.3108 6.49561 21.3125H15.9487C17.4297 21.3108 18.8495 20.7218 19.8967 19.6746C20.9439 18.6274 21.533 17.2075 21.5347 15.7266V6.27344C21.533 4.79247 20.9439 3.37264 19.8967 2.32544C18.8495 1.27823 17.4297 0.689177 15.9487 0.6875V0.6875ZM20.6753 15.7266C20.6739 16.9797 20.1754 18.1811 19.2893 19.0672C18.4033 19.9533 17.2019 20.4517 15.9487 20.4531H6.49561C5.24248 20.4517 4.04109 19.9533 3.15499 19.0672C2.2689 18.1811 1.77046 16.9797 1.76904 15.7266V6.27344C1.77046 5.02031 2.2689 3.81892 3.15499 2.93282C4.04109 2.04673 5.24248 1.5483 6.49561 1.54688H15.9487C17.2019 1.5483 18.4033 2.04673 19.2893 2.93282C20.1754 3.81892 20.6739 5.02031 20.6753 6.27344V15.7266ZM17.6675 5.41406C17.6675 5.58403 17.6171 5.75018 17.5227 5.89151C17.4282 6.03283 17.294 6.14298 17.137 6.20802C16.9799 6.27307 16.8072 6.29008 16.6404 6.25692C16.4737 6.22377 16.3206 6.14192 16.2004 6.02173C16.0802 5.90155 15.9984 5.74842 15.9652 5.58172C15.9321 5.41502 15.9491 5.24222 16.0141 5.08519C16.0792 4.92816 16.1893 4.79395 16.3307 4.69952C16.472 4.60509 16.6381 4.55469 16.8081 4.55469C17.0359 4.55497 17.2544 4.6456 17.4155 4.80671C17.5766 4.96781 17.6672 5.18623 17.6675 5.41406V5.41406Z" fill="#232E2E"/>
</g>
<defs>
<clipPath id="clip0_323_1703">
<rect width="22" height="22" fill="white" transform="translate(0.222168)"/>
</clipPath>
</defs>
</svg>
