<svg width="22" height="23" viewBox="0 0 22 23" fill="none" xmlns="http://www.w3.org/2000/svg">
<path d="M11 6.77344C10.0652 6.77344 9.15134 7.05065 8.37406 7.57001C7.59678 8.08937 6.99097 8.82756 6.63323 9.69122C6.27548 10.5549 6.18188 11.5052 6.36426 12.4221C6.54663 13.339 6.99679 14.1812 7.65782 14.8422C8.31884 15.5032 9.16103 15.9534 10.0779 16.1357C10.9948 16.3181 11.9451 16.2245 12.8088 15.8668C13.6724 15.509 14.4106 14.9032 14.93 14.1259C15.4494 13.3487 15.7266 12.4348 15.7266 11.5C15.7251 10.2469 15.2267 9.04548 14.3406 8.15939C13.4545 7.27329 12.2531 6.77486 11 6.77344ZM11 15.3672C10.2351 15.3672 9.48746 15.1404 8.85151 14.7154C8.21555 14.2905 7.71988 13.6865 7.42718 12.9799C7.13449 12.2733 7.0579 11.4957 7.20712 10.7455C7.35634 9.99539 7.72465 9.30632 8.26549 8.76549C8.80632 8.22465 9.49539 7.85634 10.2455 7.70712C10.9957 7.5579 11.7733 7.63449 12.4799 7.92718C13.1865 8.21988 13.7905 8.71555 14.2154 9.35151C14.6404 9.98746 14.8672 10.7351 14.8672 11.5C14.866 12.5253 14.4583 13.5083 13.7333 14.2333C13.0083 14.9583 12.0253 15.366 11 15.3672ZM15.7266 1.1875H6.27344C4.79247 1.18918 3.37264 1.77823 2.32544 2.82544C1.27823 3.87264 0.689177 5.29247 0.6875 6.77344V16.2266C0.689177 17.7075 1.27823 19.1274 2.32544 20.1746C3.37264 21.2218 4.79247 21.8108 6.27344 21.8125H15.7266C17.2075 21.8108 18.6274 21.2218 19.6746 20.1746C20.7218 19.1274 21.3108 17.7075 21.3125 16.2266V6.77344C21.3108 5.29247 20.7218 3.87264 19.6746 2.82544C18.6274 1.77823 17.2075 1.18918 15.7266 1.1875ZM20.4531 16.2266C20.4517 17.4797 19.9533 18.6811 19.0672 19.5672C18.1811 20.4533 16.9797 20.9517 15.7266 20.9531H6.27344C5.02031 20.9517 3.81892 20.4533 2.93282 19.5672C2.04673 18.6811 1.5483 17.4797 1.54688 16.2266V6.77344C1.5483 5.52031 2.04673 4.31892 2.93282 3.43282C3.81892 2.54673 5.02031 2.0483 6.27344 2.04688H15.7266C16.9797 2.0483 18.1811 2.54673 19.0672 3.43282C19.9533 4.31892 20.4517 5.52031 20.4531 6.77344V16.2266ZM17.4453 5.91406C17.4453 6.08403 17.3949 6.25018 17.3005 6.39151C17.2061 6.53283 17.0718 6.64298 16.9148 6.70802C16.7578 6.77307 16.585 6.79008 16.4183 6.75693C16.2516 6.72377 16.0985 6.64192 15.9783 6.52173C15.8581 6.40155 15.7762 6.24842 15.7431 6.08172C15.7099 5.91502 15.7269 5.74222 15.792 5.58519C15.857 5.42816 15.9672 5.29395 16.1085 5.19952C16.2498 5.10509 16.416 5.05469 16.5859 5.05469C16.8138 5.05497 17.0322 5.1456 17.1933 5.30671C17.3544 5.46781 17.445 5.68623 17.4453 5.91406Z" fill="white"/>
</svg>
