<svg width="104" height="106" viewBox="0 0 104 106" fill="none" xmlns="http://www.w3.org/2000/svg">
<path d="M51.9184 51.9824C50.1858 51.9858 48.5066 51.3816 47.1725 50.2747L2.6789 13.1511C1.16451 11.8908 0.212169 10.0798 0.0313791 8.11654C-0.149411 6.15325 0.45616 4.19845 1.71487 2.6822C2.97358 1.16594 4.78233 0.212431 6.74321 0.0314179C8.70409 -0.149595 10.6565 0.456719 12.1709 1.71698L51.9184 34.9798L91.666 2.90495C92.4245 2.2882 93.2973 1.82763 94.2342 1.54971C95.1711 1.27179 96.1536 1.182 97.1252 1.28549C98.0969 1.38899 99.0385 1.68373 99.8961 2.15278C100.754 2.62183 101.51 3.25594 102.122 4.01865C102.801 4.78207 103.315 5.67769 103.633 6.6494C103.95 7.6211 104.064 8.64794 103.966 9.6656C103.869 10.6833 103.562 11.6698 103.066 12.5634C102.57 13.457 101.895 14.2385 101.084 14.8588L56.5903 50.7202C55.2178 51.6521 53.5729 52.0966 51.9184 51.9824Z" fill="#F4442E"/>
<path d="M51.9294 105.985C50.43 105.988 48.9769 105.465 47.8223 104.507L9.31828 72.3807C8.00775 71.2901 7.18361 69.7229 7.02715 68.0239C6.8707 66.3249 7.39475 64.6333 8.48402 63.3211C9.57329 62.009 11.1386 61.1838 12.8355 61.0272C14.5324 60.8705 16.2219 61.3952 17.5325 62.4859L51.9294 91.271L86.3264 63.5139C86.9828 62.9802 87.7381 62.5816 88.5488 62.3411C89.3596 62.1006 90.2098 62.0229 91.0507 62.1124C91.8915 62.202 92.7064 62.4571 93.4485 62.863C94.1906 63.2689 94.8452 63.8176 95.3748 64.4777C95.9625 65.1383 96.4076 65.9134 96.6822 66.7543C96.9568 67.5952 97.055 68.4838 96.9707 69.3645C96.8864 70.2451 96.6213 71.0989 96.1921 71.8722C95.7629 72.6455 95.1788 73.3218 94.4764 73.8585L55.9723 104.893C54.7846 105.699 53.3611 106.084 51.9294 105.985Z" fill="#F4442E"/>
</svg>
