<svg width="159" height="143" viewBox="0 0 159 143" fill="none" xmlns="http://www.w3.org/2000/svg">
<path d="M131.712 23.5693C137.07 21.3767 139.887 29.1876 139.915 33.1615C139.942 40.1501 137.484 47.7691 133.866 52.8393C132.485 54.7852 130.966 56.3473 129.337 57.3888C128.95 54.84 128.785 53.1408 128.26 50.0164C131.491 45.9329 133.369 37.108 133.286 32.6956C133.176 24.8574 129.199 32.7778 127.984 34.5318C123.095 41.493 115.141 57.0051 115.141 57.0051C115.141 57.0051 114.036 57.0051 113.07 57.0051C119.091 38.6702 107.822 31.7912 104.839 30.3386C105.696 27.8995 106.773 24.5011 108.043 20.8286C110.943 22.6648 119.477 28.6394 119.56 39.2457C119.753 38.8894 119.947 38.5057 120.14 38.1495C122.736 33.4904 126.382 25.7344 131.712 23.5693Z" fill="white"/>
<path d="M97.2167 32.9698C101.746 29.0781 96.3053 23.268 92.4387 21.8428C85.6445 19.3214 75.5361 20.2807 69.2943 23.9257C68.7696 24.2272 68.2725 24.7205 68.2725 24.7205C68.2725 24.7205 70.9514 26.5841 73.6857 29.0233C78.3256 26.6115 84.4845 26.2827 89.4835 27.2419C97.5205 28.8041 87.4949 30.9418 85.2855 31.2432C76.5028 32.4765 59.2136 31.6269 58.7717 31.8462C58.3574 32.0654 57.0869 32.6958 56.1755 33.3261C57.1698 33.5454 62.2792 34.669 63.384 35.0253C80.2037 40.3696 78.1046 55.4705 78.1046 55.4705L89.014 56.6216C89.014 56.6216 88.9587 42.8909 76.9171 36.7245C77.359 36.7245 77.7732 36.6971 78.2151 36.6971C83.7665 36.5601 92.6872 36.8341 97.2167 32.9698Z" fill="white"/>
<path d="M103.182 36.0117C103.182 36.0117 103.79 45.0284 101.47 47.7417C100.642 48.7009 99.3711 49.4957 98.1835 49.7149C97.4654 49.8519 95.2559 49.5779 95.2283 47.9335C95.2007 46.8646 96.2226 44.9462 96.2226 44.9462L92.2731 40.1775C92.2731 40.1775 89.1798 56.6761 100.227 57.3887C105.751 57.745 108.844 50.6467 108.872 45.001C108.872 43.7677 108.872 42.1233 108.872 40.9449C108.899 38.1768 103.182 36.0117 103.182 36.0117Z" fill="white"/>
<path d="M51.6462 32.7232C55.4852 29.4618 60.4565 26.7486 64.6821 24.3368C64.9583 24.1724 65.7593 23.6791 65.7593 23.6791C65.7593 23.6791 58.9099 17.7593 58.6613 17.54C55.6233 19.4859 49.851 24.8027 46.5644 27.5434C39.7702 23.0487 32.0646 19.5133 25.4086 17.54C25.1324 17.8963 19.5534 24.9398 19.1392 25.4605C31.2637 28.9137 37.1465 31.1336 40.875 33.6276C34.2741 40.2873 26.2924 47.6871 26.5409 56.3475C26.5409 56.6764 36.0417 58.2659 36.0417 58.0193C35.9865 51.4418 41.6207 44.2065 46.5368 38.4511C52.3367 44.1791 55.3195 50.647 56.369 57.6356C56.4518 58.2111 65.2345 55.8542 65.2345 55.8542C65.2345 55.8542 65.2345 54.7579 65.2069 54.2098C64.5164 46.0153 58.6889 39.1637 51.6462 32.7232Z" fill="white"/>
<path d="M33.9991 62.6509V69.4751H31.9277L29.4973 66.57V69.4751H27.1221V62.6509H29.3039L31.6239 65.556V62.6509H33.9991Z" fill="white"/>
<path d="M37.1206 62.6509V69.4751H34.7454V62.6509H37.1206Z" fill="white"/>
<path d="M40.2406 65.1454H42.8644V66.9542H40.2406V67.5572H43.3615V69.4482H37.8931V62.624H43.3615V64.5151H40.2406V65.1454Z" fill="white"/>
<path d="M48.2781 64.6515V69.4477H45.9029V64.6515H43.8591V62.6509H50.3218V64.6515H48.2781Z" fill="white"/>
<path d="M57.5307 62.6509V66.1589C57.5307 67.2552 57.2269 68.1322 56.6469 68.7077C56.067 69.3106 55.2384 69.6121 54.1337 69.6121C53.0565 69.6121 52.228 69.3106 51.6204 68.7077C51.0404 68.1048 50.7366 67.2552 50.7366 66.1589V62.6509H53.1394V66.1589C53.1394 66.57 53.2222 66.8715 53.388 67.0907C53.5537 67.31 53.8022 67.4196 54.106 67.4196C54.4098 67.4196 54.6584 67.31 54.8241 67.0907C54.9898 66.8715 55.0727 66.57 55.0727 66.1589V62.6509H57.5307Z" fill="white"/>
<path d="M64.1863 64.1582L61.4796 67.447H64.2967V69.4477H58.0549V67.9403L60.872 64.6515H58.2759V62.6509H64.2415V64.1582H64.1863Z" fill="white"/>
<path d="M67.197 62.6509V69.4751H64.8218V62.6509H67.197Z" fill="white"/>
<path d="M74.7918 62.6509V69.4751H72.7204L70.29 66.57V69.4751H67.9148V62.6509H70.0967L72.4166 65.556V62.6509H74.7918Z" fill="white"/>
<path d="M77.9679 67.475V69.4482H75.5928V62.624H77.9679V65.1728H77.9956L79.7079 62.624H82.4697L80.2326 65.8032L82.7735 69.4208H79.9012L78.6308 67.4475H77.9679V67.475Z" fill="white"/>
<path d="M83.3534 63.4732C84.0439 62.8155 84.9277 62.4866 86.06 62.4866C87.1648 62.4866 88.0762 62.8155 88.7667 63.4732C89.4571 64.131 89.7886 64.9806 89.7886 66.0494C89.7886 67.1183 89.4571 67.9679 88.7667 68.6256C88.0762 69.2834 87.1924 69.6122 86.06 69.6122C84.9553 69.6122 84.0439 69.2834 83.3534 68.6256C82.663 67.9679 82.3315 67.1183 82.3315 66.0494C82.3315 64.9806 82.663 64.131 83.3534 63.4732ZM85.0934 67.1183C85.342 67.3923 85.6458 67.5293 86.06 67.5293C86.4743 67.5293 86.7781 67.3923 87.0267 67.1183C87.2753 66.8442 87.3857 66.4879 87.3857 66.0494C87.3857 65.6109 87.2753 65.2546 87.0267 64.9806C86.7781 64.7065 86.4743 64.5695 86.06 64.5695C85.6458 64.5695 85.342 64.7065 85.0934 64.9806C84.8448 65.2546 84.7344 65.6109 84.7344 66.0494C84.7344 66.4879 84.8448 66.8442 85.0934 67.1183Z" fill="white"/>
<path d="M98.4328 69.4482H96.0853L95.0358 66.3787L93.9862 69.4482H91.6387L89.6501 62.624H92.1634L92.992 65.7209L94.0967 62.624H96.0024L97.1071 65.7209L97.9357 62.624H100.449L98.4328 69.4482Z" fill="white"/>
<path d="M103.211 65.1454H105.835V66.9542H103.211V67.5572H106.332V69.4482H100.863V62.624H106.332V64.5151H103.211V65.1454Z" fill="white"/>
<path d="M113.982 66.0761C114.368 66.1858 114.672 66.3776 114.893 66.6791C115.114 66.9805 115.224 67.282 115.224 67.6383C115.224 68.2138 114.976 68.6797 114.506 69.036C114.037 69.3923 113.402 69.5568 112.601 69.5568C111.827 69.5568 110.723 69.5293 109.231 69.4745V62.6503C110.667 62.5955 111.772 62.5681 112.49 62.5681C113.236 62.5681 113.843 62.7326 114.313 63.0614C114.783 63.3903 115.003 63.8288 115.003 64.3769C115.003 64.7606 114.921 65.1169 114.727 65.4184C114.589 65.7473 114.313 65.9665 113.982 66.0761ZM112.269 64.2947H111.662V65.4184H112.269C112.463 65.4184 112.601 65.3636 112.711 65.2539C112.822 65.1443 112.877 65.0073 112.877 64.8154C112.877 64.6784 112.822 64.5414 112.711 64.4592C112.573 64.3495 112.435 64.2947 112.269 64.2947ZM112.352 67.7753C112.545 67.7753 112.684 67.7205 112.794 67.6109C112.904 67.5013 112.96 67.3368 112.96 67.1724C112.96 67.0354 112.904 66.8983 112.794 66.8161C112.684 66.7339 112.545 66.6791 112.352 66.6791H111.662V67.7753C111.883 67.7753 112.104 67.7753 112.352 67.7753Z" fill="white"/>
<path d="M118.125 62.6509V69.4751H115.75V62.6509H118.125Z" fill="white"/>
<path d="M121.246 65.1454H123.869V66.9542H121.246V67.5572H124.366V69.4482H118.898V62.624H124.366V64.5151H121.246V65.1454Z" fill="white"/>
<path d="M131.879 65.3368V68.9271C130.498 69.393 129.449 69.6122 128.73 69.6122C127.57 69.6122 126.631 69.2834 125.913 68.6256C125.195 67.9679 124.836 67.1183 124.836 66.0494C124.836 64.9806 125.168 64.131 125.858 63.4732C126.521 62.8155 127.432 62.4866 128.509 62.4866C129.449 62.4866 130.443 62.6236 131.492 62.8703L131.161 64.8161C130.194 64.6791 129.393 64.5969 128.786 64.5969C128.344 64.5969 127.985 64.7339 127.736 65.008C127.46 65.282 127.349 65.6383 127.349 66.0768C127.349 66.5153 127.488 66.8716 127.736 67.1457C128.012 67.4197 128.344 67.5568 128.786 67.5568C129.228 67.5568 129.669 67.5019 130.111 67.3923V67.0086H128.316V65.3642H131.879V65.3368Z" fill="white"/>
<path d="M135.056 62.6509V69.4751H132.68V62.6509H135.056Z" fill="white"/>
<path d="M96.3064 77.3678V80.9581C94.9255 81.424 93.876 81.6432 93.1579 81.6432C91.9979 81.6432 91.0589 81.3144 90.3408 80.6566C89.6227 79.9989 89.2637 79.1493 89.2637 78.0804C89.2637 77.0116 89.5951 76.162 90.2856 75.5042C90.9484 74.8465 91.8598 74.5176 92.9369 74.5176C93.876 74.5176 94.8702 74.6546 95.9197 74.9013L95.5883 76.8471C94.6217 76.7101 93.8207 76.6279 93.2131 76.6279C92.7712 76.6279 92.4122 76.7649 92.1636 77.039C91.8874 77.313 91.777 77.6693 91.777 78.1078C91.777 78.5463 91.9151 78.9026 92.1636 79.1767C92.4398 79.4507 92.7712 79.5878 93.2131 79.5878C93.655 79.5878 94.0969 79.5329 94.5388 79.4233V79.0396H92.7988V77.3952H96.3064V77.3678Z" fill="white"/>
<path d="M98.0461 75.5043C98.7365 74.8465 99.6203 74.5176 100.753 74.5176C101.857 74.5176 102.769 74.8465 103.459 75.5043C104.15 76.162 104.481 77.0116 104.481 78.0805C104.481 79.1493 104.15 79.9989 103.459 80.6567C102.769 81.3144 101.885 81.6433 100.753 81.6433C99.6479 81.6433 98.7365 81.3144 98.0461 80.6567C97.3556 79.9989 97.0242 79.1493 97.0242 78.0805C97.0242 77.0116 97.3556 76.1346 98.0461 75.5043ZM99.786 79.1219C100.035 79.396 100.338 79.533 100.753 79.533C101.167 79.533 101.471 79.396 101.719 79.1219C101.968 78.8478 102.078 78.4916 102.078 78.0531C102.078 77.6146 101.968 77.2583 101.719 76.9842C101.471 76.7101 101.167 76.5731 100.753 76.5731C100.338 76.5731 100.035 76.7101 99.786 76.9842C99.5374 77.2583 99.427 77.6146 99.427 78.0531C99.427 78.519 99.5374 78.8753 99.786 79.1219ZM103.238 72.5718L101.719 74.1614H99.6203L100.67 72.5718H103.238Z" fill="white"/>
<path d="M108.155 79.8623H107.934H107.465V81.4518H105.09V74.6276C106.415 74.5728 107.465 74.5454 108.155 74.5454C109.15 74.5454 109.923 74.7647 110.448 75.2032C110.972 75.6417 111.249 76.272 111.249 77.1216C111.249 78.0534 110.945 78.7386 110.337 79.2045L111.718 81.4518H108.984L108.155 79.8623ZM107.465 78.026H107.962C108.57 78.026 108.873 77.752 108.873 77.2312C108.873 76.7379 108.57 76.4913 107.962 76.4913H107.465V78.026Z" fill="white"/>
<path d="M118.181 74.9835L117.794 76.9567C116.69 76.6279 115.861 76.4634 115.281 76.4634C114.922 76.4634 114.729 76.5457 114.729 76.7375C114.729 76.7649 114.729 76.8197 114.756 76.8471C114.756 76.8745 114.784 76.9019 114.839 76.9293C114.867 76.9568 114.894 76.9842 114.95 76.9842C114.977 77.0116 115.033 77.0116 115.115 77.039C115.198 77.0664 115.254 77.0664 115.309 77.0938C115.364 77.0938 115.447 77.1212 115.557 77.1486C115.668 77.176 115.778 77.2034 115.861 77.2034C116.22 77.2856 116.524 77.3678 116.773 77.4775C117.021 77.5597 117.27 77.6967 117.518 77.8612C117.767 78.0256 117.96 78.2448 118.071 78.4915C118.209 78.7382 118.264 79.0396 118.264 79.3959C118.264 80.1085 118.015 80.6566 117.491 81.0403C116.966 81.424 116.248 81.6432 115.281 81.6432C114.37 81.6432 113.237 81.424 111.856 81.0129L112.381 79.0944C113.569 79.4781 114.425 79.67 114.95 79.6974C115.364 79.7248 115.557 79.6152 115.557 79.4233C115.557 79.3959 115.557 79.3685 115.53 79.3411C115.53 79.3137 115.502 79.2863 115.447 79.2589C115.419 79.2315 115.364 79.2041 115.336 79.2041C115.309 79.1767 115.254 79.1767 115.171 79.1493C115.088 79.1218 115.033 79.1219 114.977 79.0944C114.922 79.0944 114.839 79.067 114.756 79.0396C114.646 79.0122 114.563 78.9848 114.508 78.9848C113.652 78.793 113.044 78.5463 112.685 78.2448C112.326 77.9434 112.133 77.5049 112.133 76.8745C112.133 76.1071 112.409 75.5316 112.934 75.1205C113.458 74.7094 114.204 74.5176 115.198 74.5176C116.193 74.545 117.187 74.682 118.181 74.9835Z" fill="white"/>
<path d="M121.301 79.506V81.4792H118.926V74.655H121.301V77.2038H121.329L123.041 74.655H125.803L123.566 77.8342L126.107 81.4518H123.234L121.964 79.4786H121.301V79.506Z" fill="white"/>
<path d="M128.814 74.655V81.4792H126.438V74.655H128.814Z" fill="white"/>
<path d="M131.935 77.1496H134.559V78.9584H131.935V79.5613H135.056V81.4524H129.587V74.6282H135.056V76.5192H131.935V77.1496Z" fill="white"/>
<path d="M0 142.87V0H159V142.184L156.597 140.047C147.069 131.633 138.369 123.548 131.381 117.053C123.068 109.324 116.495 103.24 112.822 100.499C108.707 97.4024 100.09 104.309 90.1193 112.257C86.087 115.463 81.53 119.108 76.752 122.534C62.3074 132.839 52.3924 126.481 43.6097 120.89C41.2069 119.355 38.9145 117.875 36.5946 116.806C28.4195 112.969 9.25222 132.181 2.56853 139.91L0 142.87ZM110.364 96.6076C111.883 96.6076 113.236 97.0461 114.507 97.9779C118.29 100.801 124.919 106.967 133.315 114.723C139.695 120.643 147.511 127.878 156.045 135.497V3.12433H2.95518V134.949C9.88744 127.44 28.0328 109.379 37.8098 113.983C40.2955 115.134 42.643 116.642 45.1287 118.259C53.5247 123.63 62.2246 129.194 75.0948 119.985C79.8176 116.614 84.3471 112.997 88.3241 109.817C97.5763 102.39 104.84 96.6076 110.364 96.6076Z" fill="white"/>
</svg>
