<svg width="193" height="65" viewBox="0 0 193 65" fill="none" xmlns="http://www.w3.org/2000/svg">
<path d="M60.2165 18.7432C62.6542 17.7457 63.9359 21.2993 63.9484 23.1073C63.961 26.2869 62.8427 29.7532 61.1966 32.0599C60.5684 32.9452 59.8773 33.6559 59.1359 34.1298C58.96 32.9702 58.8846 32.1971 58.6459 30.7756C60.116 28.9178 60.9705 24.9028 60.9328 22.8953C60.8825 19.3293 59.0731 22.9327 58.5202 23.7308C56.2962 26.8978 52.6773 33.9552 52.6773 33.9552C52.6773 33.9552 52.1747 33.9552 51.7349 33.9552C54.4742 25.6135 49.3475 22.4839 47.9905 21.823C48.38 20.7133 48.8701 19.1672 49.4481 17.4963C50.7674 18.3317 54.6501 21.05 54.6878 25.8754C54.7758 25.7133 54.8637 25.5387 54.9517 25.3766C56.1328 23.2569 57.7914 19.7283 60.2165 18.7432Z" fill="white"/>
<path d="M44.5222 23.02C46.5829 21.2494 44.1075 18.606 42.3484 17.9576C39.2573 16.8105 34.6584 17.2469 31.8186 18.9053C31.5799 19.0424 31.3537 19.2669 31.3537 19.2669C31.3537 19.2669 32.5726 20.1147 33.8165 21.2245C35.9275 20.1272 38.7296 19.9776 41.0039 20.414C44.6604 21.1247 40.0992 22.0973 39.094 22.2344C35.0982 22.7955 27.2323 22.409 27.0312 22.5088C26.8428 22.6085 26.2648 22.8953 25.8501 23.1821C26.3024 23.2818 28.627 23.793 29.1297 23.9551C36.7819 26.3866 35.827 33.2569 35.827 33.2569L40.7903 33.7806C40.7903 33.7806 40.7652 27.5337 35.2867 24.7282C35.4877 24.7282 35.6762 24.7157 35.8772 24.7157C38.4029 24.6534 42.4615 24.7781 44.5222 23.02Z" fill="white"/>
<path d="M47.2369 24.4039C47.2369 24.4039 47.5134 28.5062 46.4579 29.7406C46.0809 30.177 45.5029 30.5386 44.9626 30.6383C44.6359 30.7007 43.6307 30.576 43.6181 29.8279C43.6056 29.3416 44.0705 28.4688 44.0705 28.4688L42.2736 26.2992C42.2736 26.2992 40.8663 33.8054 45.8925 34.1296C48.4055 34.2917 49.8128 31.0623 49.8254 28.4937C49.8254 27.9326 49.8254 27.1845 49.8254 26.6483C49.838 25.389 47.2369 24.4039 47.2369 24.4039Z" fill="white"/>
<path d="M23.7897 22.9077C25.5362 21.4239 27.798 20.1895 29.7205 19.0923C29.8462 19.0175 30.2106 18.793 30.2106 18.793C30.2106 18.793 27.0943 16.0998 26.9813 16C25.5991 16.8853 22.9729 19.3042 21.4776 20.5511C18.3866 18.5062 14.8808 16.8978 11.8526 16C11.7269 16.1621 9.18872 19.3666 9.00024 19.6035C14.5164 21.1746 17.1929 22.1845 18.8892 23.3192C15.8861 26.3491 12.2547 29.7157 12.3678 33.6559C12.3678 33.8055 16.6902 34.5287 16.6902 34.4165C16.6651 31.4239 19.2284 28.1322 21.4651 25.5137C24.1038 28.1197 25.4608 31.0623 25.9383 34.2419C25.976 34.5037 29.9718 33.4314 29.9718 33.4314C29.9718 33.4314 29.9718 32.9327 29.9592 32.6833C29.6451 28.9551 26.9938 25.8379 23.7897 22.9077Z" fill="white"/>
<path d="M87.1799 19.1718V26.2962H85.0173L82.48 23.2633V26.2962H80.0002V19.1718H82.2781L84.7002 22.2047V19.1718H87.1799Z" fill="white"/>
<path d="M90.4387 19.1718V26.2962H87.959V19.1718H90.4387Z" fill="white"/>
<path d="M93.696 21.7755H96.4352V23.6639H93.696V24.2934H96.9542V26.2676H91.2451V19.1432H96.9542V21.1174H93.696V21.7755Z" fill="white"/>
<path d="M102.087 21.2604V26.2676H99.6076V21.2604H97.4739V19.1718H104.221V21.2604H102.087Z" fill="white"/>
<path d="M111.747 19.1718V22.8341C111.747 23.9786 111.43 24.8942 110.824 25.4951C110.219 26.1245 109.354 26.4393 108.2 26.4393C107.076 26.4393 106.211 26.1245 105.576 25.4951C104.971 24.8656 104.654 23.9786 104.654 22.8341V19.1718H107.162V22.8341C107.162 23.2633 107.249 23.578 107.422 23.8069C107.595 24.0358 107.854 24.1503 108.172 24.1503C108.489 24.1503 108.748 24.0358 108.921 23.8069C109.094 23.578 109.181 23.2633 109.181 22.8341V19.1718H111.747Z" fill="white"/>
<path d="M118.695 20.7454L115.87 24.1789H118.811V26.2676H112.294V24.6939L115.235 21.2604H112.525V19.1718H118.753V20.7454H118.695Z" fill="white"/>
<path d="M121.838 19.1718V26.2962H119.359V19.1718H121.838Z" fill="white"/>
<path d="M129.768 19.1718V26.2962H127.605L125.068 23.2633V26.2962H122.588V19.1718H124.866L127.288 22.2047V19.1718H129.768Z" fill="white"/>
<path d="M133.083 24.2076V26.2676H130.604V19.1432H133.083V21.8041H133.112L134.9 19.1432H137.783L135.448 22.4622L138.1 26.239H135.102L133.775 24.179H133.083V24.2076Z" fill="white"/>
<path d="M138.706 20.03C139.427 19.3433 140.35 19 141.532 19C142.685 19 143.637 19.3433 144.357 20.03C145.078 20.7167 145.424 21.6037 145.424 22.7196C145.424 23.8355 145.078 24.7225 144.357 25.4092C143.637 26.0959 142.714 26.4392 141.532 26.4392C140.378 26.4392 139.427 26.0959 138.706 25.4092C137.985 24.7225 137.639 23.8355 137.639 22.7196C137.639 21.6037 137.985 20.7167 138.706 20.03ZM140.523 23.8355C140.782 24.1216 141.099 24.2647 141.532 24.2647C141.964 24.2647 142.281 24.1216 142.541 23.8355C142.8 23.5494 142.916 23.1774 142.916 22.7196C142.916 22.2618 142.8 21.8898 142.541 21.6037C142.281 21.3176 141.964 21.1745 141.532 21.1745C141.099 21.1745 140.782 21.3176 140.523 21.6037C140.263 21.8898 140.148 22.2618 140.148 22.7196C140.148 23.1774 140.263 23.5494 140.523 23.8355Z" fill="white"/>
<path d="M154.449 26.2676H151.998L150.902 23.0631L149.806 26.2676H147.356L145.28 19.1432H147.903L148.768 22.3764L149.922 19.1432H151.911L153.065 22.3764L153.93 19.1432H156.554L154.449 26.2676Z" fill="white"/>
<path d="M159.437 21.7755H162.176V23.6639H159.437V24.2934H162.695V26.2676H156.986V19.1432H162.695V21.1174H159.437V21.7755Z" fill="white"/>
<path d="M170.682 22.7478C171.085 22.8623 171.403 23.0626 171.633 23.3773C171.864 23.692 171.979 24.0068 171.979 24.3787C171.979 24.9796 171.72 25.466 171.23 25.838C170.739 26.2099 170.076 26.3816 169.24 26.3816C168.433 26.3816 167.279 26.353 165.722 26.2958V19.1713C167.222 19.1141 168.375 19.0854 169.125 19.0854C169.903 19.0854 170.538 19.2571 171.028 19.6005C171.518 19.9438 171.749 20.4016 171.749 20.9739C171.749 21.3744 171.662 21.7464 171.46 22.0611C171.316 22.4045 171.028 22.6334 170.682 22.7478ZM168.894 20.888H168.26V22.0611H168.894C169.096 22.0611 169.24 22.0039 169.355 21.8895C169.471 21.775 169.528 21.6319 169.528 21.4317C169.528 21.2886 169.471 21.1455 169.355 21.0597C169.211 20.9452 169.067 20.888 168.894 20.888ZM168.981 24.5218C169.182 24.5218 169.327 24.4646 169.442 24.3501C169.557 24.2357 169.615 24.064 169.615 23.8923C169.615 23.7493 169.557 23.6062 169.442 23.5204C169.327 23.4345 169.182 23.3773 168.981 23.3773H168.26V24.5218C168.49 24.5218 168.721 24.5218 168.981 24.5218Z" fill="white"/>
<path d="M175.008 19.1718V26.2962H172.528V19.1718H175.008Z" fill="white"/>
<path d="M178.265 21.7755H181.005V23.6639H178.265V24.2934H181.524V26.2676H175.814V19.1432H181.524V21.1174H178.265V21.7755Z" fill="white"/>
<path d="M189.367 21.9757V25.7239C187.925 26.2103 186.829 26.4392 186.08 26.4392C184.868 26.4392 183.888 26.0959 183.138 25.4092C182.389 24.7225 182.014 23.8355 182.014 22.7196C182.014 21.6037 182.36 20.7167 183.081 20.03C183.773 19.3433 184.724 19 185.849 19C186.829 19 187.867 19.1431 188.963 19.4006L188.617 21.432C187.608 21.289 186.772 21.2031 186.137 21.2031C185.676 21.2031 185.301 21.3462 185.041 21.6323C184.753 21.9185 184.638 22.2904 184.638 22.7482C184.638 23.206 184.782 23.578 185.041 23.8641C185.33 24.1502 185.676 24.2933 186.137 24.2933C186.599 24.2933 187.06 24.2361 187.521 24.1216V23.721H185.647V22.0043H189.367V21.9757Z" fill="white"/>
<path d="M192.683 19.1718V26.2962H190.203V19.1718H192.683Z" fill="white"/>
<path d="M152.229 34.5366V38.2848C150.787 38.7712 149.691 39.0001 148.942 39.0001C147.731 39.0001 146.75 38.6568 146.001 37.9701C145.251 37.2834 144.876 36.3964 144.876 35.2805C144.876 34.1646 145.222 33.2777 145.943 32.591C146.635 31.9043 147.587 31.5609 148.711 31.5609C149.691 31.5609 150.729 31.704 151.825 31.9615L151.479 33.993C150.47 33.8499 149.634 33.7641 148.999 33.7641C148.538 33.7641 148.163 33.9071 147.904 34.1932C147.615 34.4794 147.5 34.8513 147.5 35.3091C147.5 35.7669 147.644 36.1389 147.904 36.425C148.192 36.7111 148.538 36.8542 148.999 36.8542C149.461 36.8542 149.922 36.797 150.383 36.6825V36.2819H148.567V34.5652H152.229V34.5366Z" fill="white"/>
<path d="M154.045 32.5905C154.766 31.9038 155.689 31.5604 156.871 31.5604C158.024 31.5604 158.976 31.9038 159.696 32.5905C160.417 33.2771 160.763 34.1641 160.763 35.28C160.763 36.3959 160.417 37.2829 159.696 37.9696C158.976 38.6563 158.053 38.9996 156.871 38.9996C155.717 38.9996 154.766 38.6563 154.045 37.9696C153.324 37.2829 152.978 36.3959 152.978 35.28C152.978 34.1641 153.324 33.2485 154.045 32.5905ZM155.862 36.3673C156.121 36.6534 156.438 36.7965 156.871 36.7965C157.303 36.7965 157.62 36.6534 157.88 36.3673C158.139 36.0812 158.255 35.7092 158.255 35.2514C158.255 34.7936 158.139 34.4216 157.88 34.1355C157.62 33.8494 157.303 33.7063 156.871 33.7063C156.438 33.7063 156.121 33.8494 155.862 34.1355C155.602 34.4216 155.487 34.7936 155.487 35.2514C155.487 35.7378 155.602 36.1098 155.862 36.3673ZM159.466 29.5289L157.88 31.1884H155.689L156.784 29.5289H159.466Z" fill="white"/>
<path d="M164.599 37.14H164.368H163.878V38.7995H161.398V31.6751C162.782 31.6178 163.878 31.5892 164.599 31.5892C165.637 31.5892 166.444 31.8181 166.992 32.2759C167.54 32.7337 167.828 33.3918 167.828 34.2788C167.828 35.2516 167.511 35.9669 166.877 36.4533L168.319 38.7995H165.464L164.599 37.14ZM163.878 35.223H164.397C165.031 35.223 165.349 34.9369 165.349 34.3932C165.349 33.8782 165.031 33.6207 164.397 33.6207H163.878V35.223Z" fill="white"/>
<path d="M175.066 32.0473L174.662 34.1074C173.509 33.7641 172.644 33.5924 172.038 33.5924C171.663 33.5924 171.462 33.6782 171.462 33.8785C171.462 33.9071 171.462 33.9643 171.49 33.993C171.49 34.0216 171.519 34.0502 171.577 34.0788C171.606 34.1074 171.635 34.136 171.692 34.136C171.721 34.1646 171.779 34.1646 171.865 34.1932C171.952 34.2219 172.009 34.2219 172.067 34.2505C172.125 34.2505 172.211 34.2791 172.327 34.3077C172.442 34.3363 172.557 34.3649 172.644 34.3649C173.019 34.4508 173.336 34.5366 173.595 34.651C173.855 34.7369 174.114 34.8799 174.374 35.0516C174.633 35.2233 174.835 35.4522 174.95 35.7097C175.095 35.9672 175.152 36.2819 175.152 36.6539C175.152 37.3978 174.893 37.9701 174.345 38.3706C173.797 38.7712 173.047 39.0001 172.038 39.0001C171.087 39.0001 169.905 38.7712 168.463 38.342L169.011 36.3392C170.251 36.7397 171.144 36.94 171.692 36.9686C172.125 36.9972 172.327 36.8828 172.327 36.6825C172.327 36.6539 172.327 36.6253 172.298 36.5967C172.298 36.5681 172.269 36.5395 172.211 36.5108C172.182 36.4822 172.125 36.4536 172.096 36.4536C172.067 36.425 172.009 36.425 171.923 36.3964C171.836 36.3678 171.779 36.3678 171.721 36.3392C171.663 36.3392 171.577 36.3106 171.49 36.2819C171.375 36.2533 171.289 36.2247 171.231 36.2247C170.337 36.0244 169.703 35.7669 169.328 35.4522C168.953 35.1375 168.751 34.6797 168.751 34.0216C168.751 33.2204 169.04 32.6196 169.587 32.1904C170.135 31.7612 170.914 31.5609 171.952 31.5609C172.99 31.5895 174.028 31.7326 175.066 32.0473Z" fill="white"/>
<path d="M178.323 36.7682V38.8283H175.844V31.7039H178.323V34.3648H178.352L180.14 31.7039H183.023L180.688 35.0229L183.34 38.7997H180.342L179.015 36.7396H178.323V36.7682Z" fill="white"/>
<path d="M186.166 31.7039V38.8283H183.687V31.7039H186.166Z" fill="white"/>
<path d="M189.425 34.3076H192.164V36.196H189.425V36.8255H192.683V38.7998H186.974V31.6753H192.683V33.6495H189.425V34.3076Z" fill="white"/>
<path d="M0 65V0H72.3387V64.6883L71.2455 63.7157C66.9105 59.8878 62.9524 56.2095 59.7734 53.2544C55.9912 49.7382 53.0006 46.9701 51.3294 45.7232C49.4572 44.3142 45.5368 47.4564 41.0007 51.0723C39.1662 52.5312 37.0929 54.1895 34.9191 55.7481C28.3474 60.4364 23.8365 57.5436 19.8407 55C18.7475 54.3018 17.7046 53.6284 16.6491 53.1421C12.9297 51.3965 4.20939 60.1372 1.16858 63.6534L0 65ZM50.2111 43.9526C50.9022 43.9526 51.5179 44.1521 52.0959 44.5761C53.8174 45.8604 56.8331 48.6658 60.6529 52.1945C63.5555 54.8878 67.1115 58.1796 70.9942 61.6459V1.42145H1.34449V61.3965C4.49839 57.9801 12.7538 49.7631 17.202 51.8579C18.3328 52.3815 19.4009 53.0673 20.5318 53.803C24.3516 56.2469 28.3097 58.7781 34.1652 54.5885C36.3139 53.0549 38.3746 51.409 40.184 49.9626C44.3934 46.5835 47.6981 43.9526 50.2111 43.9526Z" fill="white"/>
</svg>
