<svg width="73" height="65" viewBox="0 0 73 65" fill="none" xmlns="http://www.w3.org/2000/svg">
<path d="M60.2165 18.7432C62.6542 17.7457 63.9359 21.2993 63.9484 23.1073C63.961 26.2869 62.8427 29.7532 61.1966 32.0599C60.5684 32.9452 59.8773 33.6559 59.1359 34.1298C58.96 32.9702 58.8846 32.1971 58.6459 30.7756C60.116 28.9178 60.9705 24.9028 60.9328 22.8953C60.8825 19.3293 59.0731 22.9327 58.5202 23.7308C56.2962 26.8978 52.6773 33.9552 52.6773 33.9552C52.6773 33.9552 52.1747 33.9552 51.7349 33.9552C54.4742 25.6135 49.3475 22.4839 47.9905 21.823C48.38 20.7133 48.8701 19.1672 49.4481 17.4963C50.7674 18.3317 54.6501 21.05 54.6878 25.8754C54.7758 25.7133 54.8637 25.5387 54.9517 25.3766C56.1328 23.2569 57.7914 19.7283 60.2165 18.7432Z" fill="white"/>
<path d="M44.5222 23.02C46.5829 21.2494 44.1075 18.606 42.3484 17.9576C39.2573 16.8105 34.6584 17.2469 31.8186 18.9053C31.5799 19.0424 31.3537 19.2669 31.3537 19.2669C31.3537 19.2669 32.5726 20.1147 33.8165 21.2245C35.9275 20.1272 38.7296 19.9776 41.0039 20.414C44.6604 21.1247 40.0992 22.0973 39.094 22.2344C35.0982 22.7955 27.2323 22.409 27.0312 22.5088C26.8428 22.6085 26.2648 22.8953 25.8501 23.1821C26.3024 23.2818 28.627 23.793 29.1297 23.9551C36.7819 26.3866 35.827 33.2569 35.827 33.2569L40.7903 33.7806C40.7903 33.7806 40.7652 27.5337 35.2867 24.7282C35.4877 24.7282 35.6762 24.7157 35.8772 24.7157C38.4029 24.6534 42.4615 24.7781 44.5222 23.02Z" fill="white"/>
<path d="M47.2369 24.4039C47.2369 24.4039 47.5134 28.5062 46.4579 29.7406C46.0809 30.177 45.5029 30.5386 44.9626 30.6383C44.6359 30.7007 43.6307 30.576 43.6181 29.8279C43.6056 29.3416 44.0705 28.4688 44.0705 28.4688L42.2736 26.2992C42.2736 26.2992 40.8663 33.8054 45.8925 34.1296C48.4055 34.2917 49.8128 31.0623 49.8254 28.4937C49.8254 27.9326 49.8254 27.1845 49.8254 26.6483C49.838 25.389 47.2369 24.4039 47.2369 24.4039Z" fill="white"/>
<path d="M23.7897 22.9077C25.5362 21.4239 27.798 20.1895 29.7205 19.0923C29.8462 19.0175 30.2106 18.793 30.2106 18.793C30.2106 18.793 27.0943 16.0998 26.9813 16C25.5991 16.8853 22.9729 19.3042 21.4776 20.5511C18.3866 18.5062 14.8808 16.8978 11.8526 16C11.7269 16.1621 9.18872 19.3666 9.00024 19.6035C14.5164 21.1746 17.1929 22.1845 18.8892 23.3192C15.8861 26.3491 12.2547 29.7157 12.3678 33.6559C12.3678 33.8055 16.6902 34.5287 16.6902 34.4165C16.6651 31.4239 19.2284 28.1322 21.4651 25.5137C24.1038 28.1197 25.4608 31.0623 25.9383 34.2419C25.976 34.5037 29.9718 33.4314 29.9718 33.4314C29.9718 33.4314 29.9718 32.9327 29.9592 32.6833C29.6451 28.9551 26.9938 25.8379 23.7897 22.9077Z" fill="white"/>
<path d="M0 65V0H72.3387V64.6883L71.2455 63.7157C66.9105 59.8878 62.9524 56.2095 59.7734 53.2544C55.9912 49.7382 53.0006 46.9701 51.3294 45.7232C49.4572 44.3142 45.5368 47.4564 41.0007 51.0723C39.1662 52.5312 37.0929 54.1895 34.9191 55.7481C28.3474 60.4364 23.8365 57.5436 19.8407 55C18.7475 54.3018 17.7046 53.6284 16.6491 53.1421C12.9297 51.3965 4.20939 60.1372 1.16858 63.6534L0 65ZM50.2111 43.9526C50.9022 43.9526 51.5179 44.1521 52.0959 44.5761C53.8174 45.8604 56.8331 48.6658 60.6529 52.1945C63.5555 54.8878 67.1115 58.1796 70.9942 61.6459V1.42145H1.34449V61.3965C4.49839 57.9801 12.7538 49.7631 17.202 51.8579C18.3328 52.3815 19.4009 53.0673 20.5318 53.803C24.3516 56.2469 28.3097 58.7781 34.1652 54.5885C36.3139 53.0549 38.3746 51.409 40.184 49.9626C44.3934 46.5835 47.6981 43.9526 50.2111 43.9526Z" fill="white"/>
</svg>
