<svg width="28" height="20" viewBox="0 0 28 20" fill="none" xmlns="http://www.w3.org/2000/svg">
<path fill-rule="evenodd" clip-rule="evenodd" d="M2 0.0949707C0.89543 0.0949707 0 0.990401 0 2.09497V17.9049C0 19.0095 0.89543 19.9049 2 19.9049H25.4291C26.5337 19.9049 27.4291 19.0095 27.4291 17.9049V2.09497C27.4291 0.990401 26.5337 0.0949707 25.4291 0.0949707H2ZM24.6259 3.36279C24.3266 2.80705 23.6335 2.59911 23.0778 2.89836L13.7146 7.94005L4.3515 2.89836C3.79575 2.59911 3.10264 2.80705 2.80339 3.36279C2.50414 3.91854 2.71207 4.61166 3.26782 4.91091L13.1728 10.2444C13.5111 10.4265 13.9182 10.4265 14.2565 10.2444L24.1614 4.91091C24.7172 4.61166 24.9251 3.91854 24.6259 3.36279Z" fill="white"/>
</svg>
