<svg width="28" height="20" viewBox="0 0 28 20" fill="none" xmlns="http://www.w3.org/2000/svg">
<path fill-rule="evenodd" clip-rule="evenodd" d="M2.4292 0.0949707C1.32463 0.0949707 0.429199 0.990401 0.429199 2.09497V17.9049C0.429199 19.0095 1.32463 19.9049 2.4292 19.9049H25.8583C26.9629 19.9049 27.8583 19.0095 27.8583 17.9049V2.09497C27.8583 0.990401 26.9629 0.0949707 25.8583 0.0949707H2.4292ZM25.0551 3.36279C24.7558 2.80705 24.0627 2.59911 23.507 2.89836L14.1438 7.94005L4.7807 2.89836C4.22495 2.59911 3.53184 2.80705 3.23259 3.36279C2.93334 3.91854 3.14127 4.61166 3.69702 4.91091L13.602 10.2444C13.9403 10.4265 14.3474 10.4265 14.6857 10.2444L24.5906 4.91091C25.1464 4.61166 25.3543 3.91854 25.0551 3.36279Z" fill="#00070A"/>
</svg>
