<svg width="15" height="13" viewBox="0 0 15 13" fill="none" xmlns="http://www.w3.org/2000/svg">
<path d="M14.0078 0.65625H0.992188C0.919141 0.65625 0.859375 0.716016 0.859375 0.789062V1.85156C0.859375 1.92461 0.919141 1.98438 0.992188 1.98438H14.0078C14.0809 1.98438 14.1406 1.92461 14.1406 1.85156V0.789062C14.1406 0.716016 14.0809 0.65625 14.0078 0.65625ZM14.0078 11.0156H0.992188C0.919141 11.0156 0.859375 11.0754 0.859375 11.1484V12.2109C0.859375 12.284 0.919141 12.3438 0.992188 12.3438H14.0078C14.0809 12.3438 14.1406 12.284 14.1406 12.2109V11.1484C14.1406 11.0754 14.0809 11.0156 14.0078 11.0156ZM14.0078 5.83594H0.992188C0.919141 5.83594 0.859375 5.8957 0.859375 5.96875V7.03125C0.859375 7.1043 0.919141 7.16406 0.992188 7.16406H14.0078C14.0809 7.16406 14.1406 7.1043 14.1406 7.03125V5.96875C14.1406 5.8957 14.0809 5.83594 14.0078 5.83594Z" fill="white"/>
</svg>
