<svg width="39" height="39" viewBox="0 0 39 39" fill="none" xmlns="http://www.w3.org/2000/svg">
<g clip-path="url(#clip0_125_3901)">
<path d="M31.6875 9.18111C31.2325 9.18111 30.875 9.53861 30.875 9.99361V19.4999H27.625V5.55736C27.625 5.10236 27.2675 4.74486 26.8125 4.74486C26.3575 4.74486 26 5.10236 26 5.55736V19.4999H22.75V4.07861C22.75 3.62361 22.3925 3.26611 21.9375 3.26611C21.4825 3.26611 21.125 3.62361 21.125 4.07861V19.4999H17.875V7.78361C17.875 7.32861 17.5175 6.97111 17.0625 6.97111C16.6075 6.97111 16.25 7.34486 16.25 7.78361V28.6974L7.55629 24.0986L6.72754 24.8299L16.25 34.7424C16.8675 35.3761 17.7125 35.7499 18.59 35.7499H29.25C31.0375 35.7499 32.5 34.2874 32.5 32.4999V9.99361C32.5 9.53861 32.1425 9.18111 31.6875 9.18111Z" fill="#F9B233"/>
<path d="M31.6874 5.93111C31.4111 5.93111 31.1349 5.96361 30.8749 6.01236V5.55736C30.8749 3.31486 29.0549 1.49486 26.8124 1.49486C26.2761 1.49486 25.7561 1.59236 25.2849 1.78736C24.5536 0.714863 23.3186 0.0161133 21.9374 0.0161133C19.7924 0.0161133 18.0211 1.68986 17.8911 3.80236C17.6311 3.75361 17.3549 3.72111 17.0624 3.72111C14.8199 3.72111 12.9999 5.54111 12.9999 7.78361V23.3024L9.08361 21.2224C7.89736 20.5886 6.41861 20.7674 5.41111 21.6611L2.04736 24.6349L13.9099 37.0011C15.1286 38.2686 16.8349 38.9999 18.6061 38.9999H29.2499C32.8411 38.9999 35.7499 36.0911 35.7499 32.4999V9.99361C35.7499 7.75111 33.9299 5.93111 31.6874 5.93111ZM32.4999 32.4999C32.4999 34.2874 31.0374 35.7499 29.2499 35.7499H18.6061C17.7286 35.7499 16.8674 35.3924 16.2661 34.7424L6.74361 24.8136L7.57236 24.0824L16.2499 28.6974V7.78361C16.2499 7.32861 16.6074 6.97111 17.0624 6.97111C17.5174 6.97111 17.8749 7.34486 17.8749 7.78361V19.4999H21.1249V4.07861C21.1249 3.62361 21.4824 3.26611 21.9374 3.26611C22.3924 3.26611 22.7499 3.62361 22.7499 4.07861V19.4999H25.9999V5.55736C25.9999 5.10236 26.3574 4.74486 26.8124 4.74486C27.2674 4.74486 27.6249 5.10236 27.6249 5.55736V19.4999H30.8749V9.99361C30.8749 9.53861 31.2324 9.18111 31.6874 9.18111C32.1424 9.18111 32.4999 9.53861 32.4999 9.99361V32.4999Z" fill="#232E2E"/>
</g>
<defs>
<clipPath id="clip0_125_3901">
<rect width="39" height="39" fill="white"/>
</clipPath>
</defs>
</svg>
