<svg width="37" height="37" viewBox="0 0 37 37" fill="none" xmlns="http://www.w3.org/2000/svg">
<path d="M4.20825 32.7918H32.7916V4.2085H4.20825V32.7918ZM6.24992 6.25016H11.497C11.497 9.14933 9.14909 11.5177 6.24992 11.5177V6.25016ZM6.24992 15.0089C11.0887 15.0089 14.9883 11.0685 14.9883 6.25016H18.4999C18.4999 13.0081 13.0283 18.5002 6.24992 18.5002V15.0089ZM12.3749 20.8481L16.7441 26.1156L22.8691 18.2347L30.7499 28.7085H6.24992L12.3749 20.8481Z" fill="#F9B233"/>
<path d="M32.7917 0.125H4.20833C1.9625 0.125 0.125 1.9625 0.125 4.20833V32.7917C0.125 35.0375 1.9625 36.875 4.20833 36.875H32.7917C35.0375 36.875 36.875 35.0375 36.875 32.7917V4.20833C36.875 1.9625 35.0375 0.125 32.7917 0.125ZM32.7917 32.7917H4.20833V4.20833H32.7917V32.7917ZM11.4971 6.25H6.25V11.5175C9.14917 11.5175 11.4971 9.14917 11.4971 6.25ZM18.5 6.25H14.9883C14.9883 11.0683 11.0888 15.0088 6.25 15.0088V18.5C13.0283 18.5 18.5 13.0079 18.5 6.25ZM22.8692 18.2142L16.7442 26.1154L12.375 20.8479L6.25 28.7083H30.75L22.8692 18.2142Z" fill="#232E2E"/>
</svg>
