<svg width="41" height="43" viewBox="0 0 41 43" fill="none" xmlns="http://www.w3.org/2000/svg">
<g clip-path="url(#clip0_54_627)">
<path d="M4.5 32.271L5.68 31.0418L6.84 29.8335H36.5V4.8335H4.5V32.271ZM16.5 9.00016H32.5V13.1668H16.5V9.00016ZM16.5 15.2502H32.5V19.4168H16.5V15.2502ZM16.5 21.5002H26.5V25.6668H16.5V21.5002ZM8.5 9.00016H12.5V13.1668H8.5V9.00016ZM8.5 15.2502H12.5V19.4168H8.5V15.2502ZM8.5 21.5002H12.5V25.6668H8.5V21.5002Z" fill="#F9B233"/>
<path d="M36.5 0.666504H4.5C2.3 0.666504 0.52 2.5415 0.52 4.83317L0.5 42.3332L8.5 33.9998H36.5C38.7 33.9998 40.5 32.1248 40.5 29.8332V4.83317C40.5 2.5415 38.7 0.666504 36.5 0.666504ZM36.5 29.8332H6.84L5.66 31.0623L4.5 32.2707V4.83317H36.5V29.8332ZM8.5 21.4998H12.5V25.6665H8.5V21.4998ZM8.5 15.2498H12.5V19.4165H8.5V15.2498ZM8.5 8.99984H12.5V13.1665H8.5V8.99984ZM16.5 21.4998H26.5V25.6665H16.5V21.4998ZM16.5 15.2498H32.5V19.4165H16.5V15.2498ZM16.5 8.99984H32.5V13.1665H16.5V8.99984Z" fill="#232E2E"/>
</g>
<defs>
<clipPath id="clip0_54_627">
<rect width="40" height="42" fill="white" transform="translate(0.5 0.5)"/>
</clipPath>
</defs>
</svg>
