<svg width="6" height="12" viewBox="0 0 6 12" fill="none" xmlns="http://www.w3.org/2000/svg">
<g clip-path="url(#clip0_177_9018)">
<path d="M5.19995 6.00049C5.20027 6.16405 5.14331 6.32255 5.03895 6.44849L1.53895 10.6485C1.42013 10.7914 1.24939 10.8813 1.0643 10.8984C0.879197 10.9155 0.6949 10.8583 0.551949 10.7395C0.408997 10.6207 0.3191 10.4499 0.302034 10.2648C0.284969 10.0797 0.342132 9.89544 0.460949 9.75249L3.59695 6.00049L0.572949 2.24849C0.514803 2.17689 0.471381 2.0945 0.445178 2.00606C0.418976 1.91762 0.410511 1.82488 0.420268 1.73316C0.430025 1.64144 0.457813 1.55255 0.502035 1.47161C0.546257 1.39066 0.60604 1.31925 0.677949 1.26149C0.749924 1.19738 0.834362 1.14883 0.925974 1.11888C1.01759 1.08892 1.1144 1.07821 1.21034 1.08741C1.30628 1.09661 1.3993 1.12552 1.48354 1.17234C1.56779 1.21916 1.64147 1.28287 1.69995 1.35949L5.08095 5.55949C5.16881 5.68905 5.21071 5.84432 5.19995 6.00049Z" fill="#F4442E"/>
</g>
<defs>
<clipPath id="clip0_177_9018">
<rect width="12" height="6" fill="white" transform="translate(0 12) rotate(-90)"/>
</clipPath>
</defs>
</svg>
