<svg width="37" height="36" viewBox="0 0 37 36" fill="none" xmlns="http://www.w3.org/2000/svg">
<path d="M35.5318 0L35.2029 0.0588636L24.2262 4.12045L11.8929 0L0.29957 3.72803C-0.132097 3.86538 -0.44043 4.21856 -0.44043 4.66985V34.3371C-0.44043 34.8865 0.0117926 35.3182 0.587348 35.3182L0.916237 35.2593L11.8929 31.1977L24.2262 35.3182L35.8196 31.5901C36.2512 31.4528 36.5596 31.0996 36.5596 30.6483V0.981061C36.5596 0.431667 36.1073 0 35.5318 0ZM9.83735 27.764L3.67068 30.0401V6.78894L9.83735 4.8072V27.764ZM22.1707 30.4717L13.9485 27.7248V4.84644L22.1707 7.59341V30.4717ZM32.4485 28.5292L26.2818 30.511V7.57379L32.4485 5.29773V28.5292Z" fill="#232E2E"/>
</svg>
