<svg width="28" height="31" viewBox="0 0 28 31" fill="none" xmlns="http://www.w3.org/2000/svg">
<path d="M27.7211 9.5C27.7211 9.5 27.4477 7.43164 26.6055 6.52344C25.5391 5.32813 24.3469 5.32227 23.8 5.25195C19.8844 4.94727 14.0055 4.94727 14.0055 4.94727H13.9945C13.9945 4.94727 8.11562 4.94727 4.2 5.25195C3.65313 5.32227 2.46094 5.32813 1.39453 6.52344C0.552344 7.43164 0.284375 9.5 0.284375 9.5C0.284375 9.5 0 11.9316 0 14.3574V16.6309C0 19.0566 0.278906 21.4883 0.278906 21.4883C0.278906 21.4883 0.552344 23.5566 1.38906 24.4648C2.45547 25.6602 3.85547 25.6191 4.47891 25.748C6.72109 25.9766 14 26.0469 14 26.0469C14 26.0469 19.8844 26.0352 23.8 25.7363C24.3469 25.666 25.5391 25.6602 26.6055 24.4648C27.4477 23.5566 27.7211 21.4883 27.7211 21.4883C27.7211 21.4883 28 19.0625 28 16.6309V14.3574C28 11.9316 27.7211 9.5 27.7211 9.5ZM11.107 19.3906V10.959L18.6703 15.1895L11.107 19.3906Z" fill="#232E2E"/>
</svg>
